<?xml version="1.0" encoding="utf-8"?>
<!-- Generator: Adobe Illustrator 16.2.1, SVG Export Plug-In . SVG Version: 6.00 Build 0)  -->
<!DOCTYPE svg PUBLIC "-//W3C//DTD SVG 1.1//EN" "http://www.w3.org/Graphics/SVG/1.1/DTD/svg11.dtd">
<svg version="1.1" id="keyboad_x5F_layout" xmlns="http://www.w3.org/2000/svg" xmlns:xlink="http://www.w3.org/1999/xlink" x="0px"
	 y="0px" width="1190.551px" height="348.148px" viewBox="0 0 1190.551 348.148" enable-background="new 0 0 1190.551 348.148"
	 xml:space="preserve">
<g id="layout">
	<g id="keyboard_outline">
	  <path fill="none" stroke="#000000" d="M1181.285,327.2c0,5.5-4.5,10-10,10H20c-5.5,0-10-4.5-10-10
		V22.447c0-5.5,4.5-10,10-10h1151.285c5.5,0,10,4.5,10,10V327.2z"/>
	</g>
	<g>
		<rect x="987.914" y="31.72" fill="none" stroke="#000000" width="17.497" height="6.38"/>
		<rect x="1047.161" y="31.72" fill="none" stroke="#000000" width="17.499" height="6.38"/>
		<rect x="1104.41" y="31.72" fill="none" stroke="#000000" width="17.499" height="6.38"/>
		<rect x="990.582" y="44.482" fill="none" stroke="#000000" stroke-width="0.663" width="12.195" height="13.354"/>
		<text transform="matrix(1 0 0 1 994.3518 54.782)" font-family="'IPAexGothic'" font-size="10.0999">9</text>
		<rect x="1050.06" y="44.482" fill="none" stroke="#000000" stroke-width="0.663" width="12.196" height="13.354"/>
		<text transform="matrix(1 0 0 1 1052.9866 54.782)" font-family="'IPAexGothic'" font-size="10.0999">A</text>
		<rect x="1107.534" y="44.482" fill="none" stroke="#000000" stroke-width="0.663" width="12.196" height="13.354"/>
		<rect x="1112.748" y="47.255" fill="none" stroke="#000000" width="1.318" height="6.746"/>
		<polygon fill="none" stroke="#000000" points="1115.787,52.652 1113.407,55.126 1111.027,52.652 		"/>
	</g>
</g>
<g id="normal_x5F_keys">
	<g id="row4">
		<g id="code-226">
			<g>
				<path fill="none" stroke="#000000" stroke-width="0.663" d="M687.352,270.922H649.44c-2.809,0-5.09-2.28-5.09-5.09v-37.911
					c0-2.807,2.281-5.091,5.09-5.091h37.911c2.807,0,5.09,2.284,5.09,5.091v37.911C692.441,268.64,690.156,270.922,687.352,270.922
					L687.352,270.922z"/>
				<path fill="none" stroke="#000000" stroke-width="0.663" d="M690.987,265.833c0,2-1.636,3.638-3.636,3.638H649.44
					c-2,0-3.637-1.638-3.637-3.638v-37.911c0-1.999,1.637-3.636,3.637-3.636h37.911c2,0,3.636,1.637,3.636,3.636V265.833z"/>
				<text transform="matrix(1 0 0 1 654.5608 260.5789)" font-family="'IPAexGothic'" font-size="13.1832">\</text>
				<text transform="matrix(1 0 0 1 651.9651 234.405)" font-family="'IPAexGothic'" font-size="13.1832">_</text>
				<text transform="matrix(1 0 0 1 672.0999 261.7654)" font-family="'IPAexGothic'" font-size="13.1832">ろ</text>
			</g>
		</g>
		<g id="code-191">
			<g>
				<path fill="none" stroke="#000000" stroke-width="0.663" d="M636.72,270.76h-37.911c-2.807,0-5.089-2.283-5.089-5.094v-37.91
					c0-2.808,2.283-5.092,5.089-5.092h37.911c2.808,0,5.09,2.284,5.09,5.092v37.91C641.81,268.477,639.527,270.76,636.72,270.76
					L636.72,270.76z"/>
				<path fill="none" stroke="#000000" stroke-width="0.663" d="M640.354,265.668c0,2.001-1.636,3.638-3.635,3.638h-37.911
					c-2,0-3.637-1.637-3.637-3.638v-37.91c0-2.001,1.637-3.636,3.637-3.636h37.911c1.999,0,3.635,1.635,3.635,3.636V265.668z"/>
				<text transform="matrix(1 0 0 1 600.5042 241.9724)" font-family="'IPAexGothic'" font-size="13.1832">？</text>
				<text transform="matrix(1 0 0 1 621.1897 241.0046)" font-family="'IPAexGothic'" font-size="13.1832" letter-spacing="-1">・</text>
				<text transform="matrix(1 0 0 1 621.5061 261.1804)" font-family="'IPAexGothic'" font-size="13.1832">め</text>
				<text transform="matrix(1 0 0 1 603.0823 262.283)" font-family="'IPAexGothic'" font-size="13.1832">/</text>
			</g>
		</g>
		<g id="code-190">
			<g>
				<path fill="none" stroke="#000000" stroke-width="0.663" d="M586.312,270.76H548.4c-2.808,0-5.09-2.283-5.09-5.094v-37.91
					c0-2.808,2.282-5.092,5.09-5.092h37.911c2.807,0,5.089,2.284,5.089,5.092v37.91C591.401,268.477,589.117,270.76,586.312,270.76
					L586.312,270.76z"/>
				<path fill="none" stroke="#000000" stroke-width="0.663" d="M589.946,265.668c0,2.001-1.636,3.638-3.635,3.638H548.4
					c-2.001,0-3.637-1.637-3.637-3.638v-37.91c0-2.001,1.636-3.636,3.637-3.636h37.911c1.999,0,3.635,1.635,3.635,3.636V265.668
					L589.946,265.668z"/>
				<text transform="matrix(1 0 0 1 551.0623 241.9724)" font-family="'IPAexGothic'" font-size="13.1832">＞</text>
				<text transform="matrix(1 0 0 1 571.0969 261.1804)" font-family="'IPAexGothic'" font-size="13.1832">る</text>
				<text transform="matrix(1 0 0 1 574.6936 241.0046)" font-family="'IPAexGothic'" font-size="13.1832" letter-spacing="-4">。</text>
				<text transform="matrix(1 0 0 1 552.6721 260.283)" font-family="'IPAexGothic'" font-size="13.1832">.</text>
			</g>
		</g>
		<g id="code-188">
			<g>
				<path fill="none" stroke="#000000" stroke-width="0.663" d="M535.256,270.76h-37.911c-2.81,0-5.09-2.283-5.09-5.094v-37.91
					c0-2.808,2.28-5.092,5.09-5.092h37.911c2.808,0,5.09,2.284,5.09,5.092v37.91C540.346,268.477,538.064,270.76,535.256,270.76
					L535.256,270.76z"/>
				<path fill="none" stroke="#000000" stroke-width="0.663" d="M538.892,265.668c0,2.001-1.636,3.638-3.635,3.638h-37.911
					c-2.001,0-3.637-1.637-3.637-3.638v-37.91c0-2.001,1.636-3.636,3.637-3.636h37.911c1.999,0,3.635,1.635,3.635,3.636V265.668z"/>
				<text transform="matrix(1 0 0 1 498.0725 241.9724)" font-family="'IPAexGothic'" font-size="13.1832">＜</text>
				<text transform="matrix(1 0 0 1 520.0422 261.1804)" font-family="'IPAexGothic'" font-size="13.1832">ね</text>
				<text transform="matrix(1 0 0 1 523.9329 241.0046)" font-family="'IPAexGothic'" font-size="13.1832" letter-spacing="-4">、</text>
				<text transform="matrix(1 0 0 1 501.6174 260.283)" font-family="'IPAexGothic'" font-size="13.1832">,</text>
			</g>
		</g>
		<g id="code-77">
			<g>
				<path fill="none" stroke="#000000" stroke-width="0.663" d="M483.556,270.76h-37.912c-2.808,0-5.09-2.283-5.09-5.094v-37.91
					c0-2.808,2.282-5.092,5.09-5.092h37.912c2.806,0,5.09,2.284,5.09,5.092v37.91C488.646,268.477,486.361,270.76,483.556,270.76
					L483.556,270.76z"/>
				<path fill="none" stroke="#000000" stroke-width="0.663" d="M487.191,265.668c0,2.001-1.636,3.638-3.635,3.638h-37.912
					c-2,0-3.637-1.637-3.637-3.638v-37.91c0-2.001,1.637-3.636,3.637-3.636h37.912c1.999,0,3.635,1.635,3.635,3.636V265.668z"/>
				<text transform="matrix(1 0 0 1 451.2083 241.9724)" font-family="'IPAexGothic'" font-size="13.1832">M</text>
				<text transform="matrix(1 0 0 1 468.3416 261.1804)" font-family="'IPAexGothic'" font-size="13.1832">も</text>
			</g>
		</g>
		<g id="code-78">
			<g>
				<path fill="none" stroke="#000000" stroke-width="0.663" d="M432.5,270.76h-37.912c-2.81,0-5.09-2.283-5.09-5.094v-37.91
					c0-2.808,2.28-5.092,5.09-5.092H432.5c2.807,0,5.09,2.284,5.09,5.092v37.91C437.59,268.477,435.307,270.76,432.5,270.76
					L432.5,270.76z"/>
				<path fill="none" stroke="#000000" stroke-width="0.663" d="M436.136,265.668c0,2.001-1.636,3.638-3.636,3.638h-37.911
					c-2,0-3.639-1.637-3.639-3.638v-37.91c0-2.001,1.639-3.636,3.639-3.636H432.5c1.997,0,3.635,1.635,3.635,3.636L436.136,265.668
					L436.136,265.668z"/>
				<text transform="matrix(1 0 0 1 400.1536 241.9724)" font-family="'IPAexGothic'" font-size="13.1832">N</text>
				<text transform="matrix(1 0 0 1 417.2864 261.1804)" font-family="'IPAexGothic'" font-size="13.1832">み</text>
			</g>
		</g>
		<g id="code-66">
			<g>
				<path fill="none" stroke="#000000" stroke-width="0.663" d="M381.446,270.76h-37.912c-2.808,0-5.09-2.283-5.09-5.094v-37.91
					c0-2.808,2.282-5.092,5.09-5.092h37.912c2.809,0,5.09,2.284,5.09,5.092v37.91C386.534,268.477,384.252,270.76,381.446,270.76
					L381.446,270.76z"/>
				<path fill="none" stroke="#000000" stroke-width="0.663" d="M385.079,265.668c0,2.001-1.636,3.638-3.635,3.638h-37.912
					c-2,0-3.637-1.637-3.637-3.638v-37.91c0-2.001,1.637-3.636,3.637-3.636h37.912c1.999,0,3.635,1.635,3.635,3.636V265.668z"/>
				<text transform="matrix(1 0 0 1 349.0979 241.9724)" font-family="'IPAexGothic'" font-size="13.1832">B</text>
				<text transform="matrix(1 0 0 1 366.2322 261.1804)" font-family="'IPAexGothic'" font-size="13.1832">こ</text>
			</g>
		</g>
		<g id="code-86">
			<g>
				<path fill="none" stroke="#000000" stroke-width="0.663" d="M330.391,270.76h-37.912c-2.808,0-5.09-2.283-5.09-5.094v-37.91
					c0-2.808,2.282-5.092,5.09-5.092h37.912c2.807,0,5.09,2.284,5.09,5.092v37.91C335.481,268.477,333.198,270.76,330.391,270.76
					L330.391,270.76z"/>
				<path fill="none" stroke="#000000" stroke-width="0.663" d="M334.026,265.668c0,2.001-1.636,3.638-3.635,3.638h-37.912
					c-2,0-3.637-1.637-3.637-3.638v-37.91c0-2.001,1.637-3.636,3.637-3.636h37.912c1.999,0,3.635,1.635,3.635,3.636V265.668z"/>
				<text transform="matrix(1 0 0 1 298.0432 241.9724)" font-family="'IPAexGothic'" font-size="13.1832">V</text>
				<text transform="matrix(1 0 0 1 315.177 261.1804)" font-family="'IPAexGothic'" font-size="13.1832">ひ</text>
			</g>
		</g>
		<g id="code-67">
			<g>
				<path fill="none" stroke="#000000" stroke-width="0.663" d="M279.015,270.76h-37.912c-2.808,0-5.09-2.283-5.09-5.094v-37.91
					c0-2.808,2.282-5.092,5.09-5.092h37.912c2.807,0,5.09,2.284,5.09,5.092v37.91C284.105,268.477,281.822,270.76,279.015,270.76
					L279.015,270.76z"/>
				<path fill="none" stroke="#000000" stroke-width="0.663" d="M282.65,265.668c0,2.001-1.636,3.638-3.635,3.638h-37.912
					c-2,0-3.637-1.637-3.637-3.638v-37.91c0-2.001,1.637-3.636,3.637-3.636h37.912c1.999,0,3.635,1.635,3.635,3.636V265.668z"/>
				<text transform="matrix(1 0 0 1 246.6682 241.9724)" font-family="'IPAexGothic'" font-size="13.1832">C</text>
				<text transform="matrix(1 0 0 1 263.801 261.1804)" font-family="'IPAexGothic'" font-size="13.1832">そ</text>
			</g>
		</g>
		<g id="code-88">
			<g>
				<path fill="none" stroke="#000000" stroke-width="0.663" d="M228.254,270.76h-37.912c-2.808,0-5.09-2.283-5.09-5.094v-37.91
					c0-2.808,2.282-5.092,5.09-5.092h37.912c2.807,0,5.09,2.284,5.09,5.092v37.91C233.344,268.477,231.061,270.76,228.254,270.76
					L228.254,270.76z"/>
				<path fill="none" stroke="#000000" stroke-width="0.663" d="M231.89,265.668c0,2.001-1.636,3.638-3.635,3.638h-37.912
					c-2,0-3.637-1.637-3.637-3.638v-37.91c0-2.001,1.637-3.636,3.637-3.636h37.912c1.999,0,3.635,1.635,3.635,3.636V265.668z"/>
				<text transform="matrix(1 0 0 1 195.9075 241.9724)" font-family="'IPAexGothic'" font-size="13.1832">X</text>
				<text transform="matrix(1 0 0 1 213.0408 261.1804)" font-family="'IPAexGothic'" font-size="13.1832">さ</text>
			</g>
		</g>
		<g id="code-90">
			<g>
				<path fill="none" stroke="#000000" stroke-width="0.663" d="M177.494,270.76h-37.912c-2.81,0-5.09-2.283-5.09-5.094v-37.91
					c0-2.808,2.28-5.092,5.09-5.092h37.912c2.807,0,5.09,2.284,5.09,5.092v37.91C182.584,268.477,180.301,270.76,177.494,270.76
					L177.494,270.76z"/>
				<path fill="none" stroke="#000000" stroke-width="0.663" d="M181.129,265.668c0,2.001-1.636,3.638-3.635,3.638h-37.912
					c-2,0-3.639-1.637-3.639-3.638v-37.91c0-2.001,1.639-3.636,3.639-3.636h37.912c1.999,0,3.635,1.635,3.635,3.636V265.668z"/>
				<text transform="matrix(1 0 0 1 145.1467 241.9724)" font-family="'IPAexGothic'" font-size="13.1832">Z</text>
				<text transform="matrix(1 0 0 1 162.2805 261.1804)" font-family="'IPAexGothic'" font-size="13.1832">つ</text>
			</g>
		</g>
	</g>
	<g id="row3">
		<g id="code-221">
			<g>
				<path fill="none" stroke="#000000" stroke-width="0.663" d="M723.559,220.388h-37.91c-2.808,0-5.09-2.283-5.09-5.094v-37.908
					c0-2.81,2.282-5.093,5.09-5.093h37.91c2.808,0,5.09,2.283,5.09,5.093v37.908C728.648,218.105,726.365,220.388,723.559,220.388
					L723.559,220.388z"/>
				<path fill="none" stroke="#000000" stroke-width="0.663" d="M727.194,215.296c0,2.001-1.637,3.638-3.636,3.638h-37.91
					c-2.001,0-3.637-1.637-3.637-3.638v-37.908c0-2,1.636-3.638,3.637-3.638h37.91c1.999,0,3.636,1.638,3.636,3.638V215.296z"/>
				<text transform="matrix(1 0 0 1 689.1624 191.1257)" font-family="'IPAexGothic'" font-size="13.1832">}</text>
				<text transform="matrix(1 0 0 1 712.1487 191.1257)" font-family="'IPAexGothic'" font-size="13.1832" letter-spacing="-4">」</text>
				<g>
					<text transform="matrix(1 0 0 1 709.1975 211.3015)" font-family="'IPAexGothic'" font-size="13.1832">む</text>
				</g>
				<text transform="matrix(1 0 0 1 689.7893 211.3015)" font-family="'IPAexGothic'" font-size="13.1832">]</text>
			</g>
		</g>
		<g id="code-186">
			<g>
				<path fill="none" stroke="#000000" stroke-width="0.663" d="M673.15,220.388h-37.911c-2.808,0-5.09-2.283-5.09-5.094v-37.908
					c0-2.81,2.282-5.093,5.09-5.093h37.911c2.808,0,5.09,2.283,5.09,5.093v37.908C678.24,218.105,675.956,220.388,673.15,220.388
					L673.15,220.388z"/>
				<path fill="none" stroke="#000000" stroke-width="0.663" d="M676.783,215.296c0,2.001-1.636,3.638-3.635,3.638h-37.911
					c-2,0-3.637-1.637-3.637-3.638v-37.908c0-2,1.637-3.638,3.637-3.638h37.911c1.999,0,3.635,1.638,3.635,3.638V215.296z"/>
				<text transform="matrix(1 0 0 1 635.967 191.6003)" font-family="'IPAexGothic'" font-size="13.1832">＊</text>
				<text transform="matrix(1 0 0 1 635.7971 210.4851)" font-family="'IPAexGothic'" font-size="13.1832" letter-spacing="-1">：</text>
				<text transform="matrix(1 0 0 1 657.9377 210.8083)" font-family="'IPAexGothic'" font-size="13.1832">け</text>
			</g>
		</g>
		<g id="code-187">
			<g>
				<path fill="none" stroke="#000000" stroke-width="0.663" d="M622.74,220.388h-37.911c-2.808,0-5.09-2.283-5.09-5.094v-37.908
					c0-2.81,2.282-5.093,5.09-5.093h37.911c2.809,0,5.092,2.283,5.092,5.093v37.908C627.83,218.105,625.549,220.388,622.74,220.388
					L622.74,220.388z"/>
				<path fill="none" stroke="#000000" stroke-width="0.663" d="M626.377,215.296c0,2.001-1.639,3.638-3.637,3.638h-37.911
					c-2.001,0-3.637-1.637-3.637-3.638v-37.908c0-2,1.636-3.638,3.637-3.638h37.911c1.998,0,3.637,1.638,3.637,3.638V215.296z"/>
				<text transform="matrix(1 0 0 1 588.4602 191.6003)" font-family="'IPAexGothic'" font-size="13.1832">＋</text>
				<text transform="matrix(1 0 0 1 586.3557 210.4851)" font-family="'IPAexGothic'" font-size="13.1832" letter-spacing="-1">；</text>
				<text transform="matrix(1 0 0 1 607.5276 210.8083)" font-family="'IPAexGothic'" font-size="13.1832">れ</text>
			</g>
		</g>
		<g id="code-76">
			<g>
				<path fill="none" stroke="#000000" stroke-width="0.663" d="M572.331,220.388h-37.909c-2.81,0-5.092-2.283-5.092-5.094v-37.908
					c0-2.81,2.282-5.093,5.092-5.093h37.909c2.81,0,5.092,2.283,5.092,5.093v37.908
					C577.423,218.105,575.141,220.388,572.331,220.388L572.331,220.388z"/>
				<path fill="none" stroke="#000000" stroke-width="0.663" d="M575.968,215.296c0,2.001-1.636,3.638-3.636,3.638h-37.91
					c-2,0-3.639-1.637-3.639-3.638v-37.908c0-2,1.638-3.638,3.639-3.638h37.91c2,0,3.636,1.638,3.636,3.638V215.296z"/>
				<text transform="matrix(1 0 0 1 539.9866 191.6003)" font-family="'IPAexGothic'" font-size="13.1832">L</text>
				<text transform="matrix(1 0 0 1 557.1194 210.8083)" font-family="'IPAexGothic'" font-size="13.1832">り</text>
			</g>
		</g>
		<g id="code-75">
			<g>
				<path fill="none" stroke="#000000" stroke-width="0.663" d="M521.278,220.388h-37.911c-2.808,0-5.09-2.283-5.09-5.094v-37.908
					c0-2.81,2.282-5.093,5.09-5.093h37.911c2.81,0,5.09,2.283,5.09,5.093v37.908C526.366,218.105,524.086,220.388,521.278,220.388
					L521.278,220.388z"/>
				<path fill="none" stroke="#000000" stroke-width="0.663" d="M524.912,215.296c0,2.001-1.636,3.638-3.635,3.638h-37.911
					c-2.001,0-3.637-1.637-3.637-3.638v-37.908c0-2,1.636-3.638,3.637-3.638h37.911c1.999,0,3.635,1.638,3.635,3.638V215.296z"/>
				<text transform="matrix(1 0 0 1 488.9319 191.6003)" font-family="'IPAexGothic'" font-size="13.1832">K</text>
				<text transform="matrix(1 0 0 1 506.0647 210.8083)" font-family="'IPAexGothic'" font-size="13.1832">の</text>
			</g>
		</g>
		<g id="code-74">
			<g>
				<path fill="none" stroke="#000000" stroke-width="0.663" d="M469.576,220.388h-37.91c-2.81,0-5.092-2.283-5.092-5.094v-37.908
					c0-2.81,2.282-5.093,5.092-5.093h37.91c2.809,0,5.092,2.283,5.092,5.093v37.908
					C474.666,218.105,472.384,220.388,469.576,220.388L469.576,220.388z"/>
				<path fill="none" stroke="#000000" stroke-width="0.663" d="M473.213,215.296c0,2.001-1.638,3.638-3.637,3.638h-37.91
					c-2,0-3.639-1.637-3.639-3.638v-37.908c0-2,1.639-3.638,3.639-3.638h37.91c1.999,0,3.637,1.638,3.637,3.638V215.296z"/>
				<text transform="matrix(1 0 0 1 437.2307 191.6003)" font-family="'IPAexGothic'" font-size="13.1832">J</text>
				<text transform="matrix(1 0 0 1 454.3635 210.8083)" font-family="'IPAexGothic'" font-size="13.1832">ま</text>
				<line fill="none" stroke="#000000" stroke-width="0.5669" x1="446.26" y1="214.742" x2="454.886" y2="214.742"/>
				<line fill="none" stroke="#000000" x1="446.26" y1="215.503" x2="454.886" y2="215.503"/>
			</g>
		</g>
		<g id="code-72">
			<g>
				<path fill="none" stroke="#000000" stroke-width="0.663" d="M418.523,220.388h-37.912c-2.808,0-5.09-2.283-5.09-5.094v-37.908
					c0-2.81,2.282-5.093,5.09-5.093h37.912c2.807,0,5.09,2.283,5.09,5.093v37.908C423.613,218.105,421.328,220.388,418.523,220.388
					L418.523,220.388z"/>
				<path fill="none" stroke="#000000" stroke-width="0.663" d="M422.156,215.296c0,2.001-1.636,3.638-3.635,3.638H380.61
					c-2,0-3.637-1.637-3.637-3.638v-37.908c0-2,1.637-3.638,3.637-3.638h37.912c1.999,0,3.635,1.638,3.635,3.638V215.296z"/>
				<text transform="matrix(1 0 0 1 386.1755 191.6003)" font-family="'IPAexGothic'" font-size="13.1832">H</text>
				<text transform="matrix(1 0 0 1 403.3088 210.8083)" font-family="'IPAexGothic'" font-size="13.1832">く</text>
			</g>
		</g>
		<g id="code-71">
			<g>
				<path fill="none" stroke="#000000" stroke-width="0.663" d="M367.735,221.388h-37.912c-2.808,0-5.09-2.283-5.09-5.094v-37.908
					c0-2.81,2.282-5.093,5.09-5.093h37.912c2.807,0,5.09,2.283,5.09,5.093v37.908C372.823,219.105,370.54,221.388,367.735,221.388
					L367.735,221.388z"/>
				<path fill="none" stroke="#000000" stroke-width="0.663" d="M371.368,216.296c0,2.001-1.636,3.638-3.635,3.638h-37.912
					c-2,0-3.637-1.637-3.637-3.638v-37.908c0-2,1.637-3.638,3.637-3.638h37.912c1.999,0,3.635,1.638,3.635,3.638V216.296z"/>
				<text transform="matrix(1 0 0 1 335.3875 192.6003)" font-family="'IPAexGothic'" font-size="13.1832">G</text>
				<text transform="matrix(1 0 0 1 352.5208 211.8083)" font-family="'IPAexGothic'" font-size="13.1832">き</text>
			</g>
		</g>
		<g id="code-70">
			<g>
				<path fill="none" stroke="#000000" stroke-width="0.663" d="M316.68,220.388h-37.912c-2.808,0-5.09-2.283-5.09-5.094v-37.908
					c0-2.81,2.282-5.093,5.09-5.093h37.912c2.807,0,5.09,2.283,5.09,5.093v37.908C321.77,218.105,319.487,220.388,316.68,220.388
					L316.68,220.388z"/>
				<path fill="none" stroke="#000000" stroke-width="0.663" d="M320.315,215.296c0,2.001-1.636,3.638-3.635,3.638h-37.912
					c-2,0-3.637-1.637-3.637-3.638v-37.908c0-2,1.637-3.638,3.637-3.638h37.912c1.999,0,3.635,1.638,3.635,3.638V215.296z"/>
				<text transform="matrix(1 0 0 1 284.3333 191.6003)" font-family="'IPAexGothic'" font-size="13.1832">F</text>
				<text transform="matrix(1 0 0 1 301.4666 210.8083)" font-family="'IPAexGothic'" font-size="13.1832">は</text>
				<line fill="none" stroke="#000000" stroke-width="0.5669" x1="292.012" y1="214.742" x2="300.638" y2="214.742"/>
				<line fill="none" stroke="#000000" x1="292.012" y1="215.503" x2="300.638" y2="215.503"/>
			</g>
		</g>
		<g id="code-68">
			<g>
				<path fill="none" stroke="#000000" stroke-width="0.663" d="M265.812,220.388H227.9c-2.808,0-5.09-2.283-5.09-5.094v-37.908
					c0-2.81,2.282-5.093,5.09-5.093h37.912c2.809,0,5.09,2.283,5.09,5.093v37.908C270.902,218.105,268.619,220.388,265.812,220.388
					L265.812,220.388z"/>
				<path fill="none" stroke="#000000" stroke-width="0.663" d="M269.448,215.296c0,2.001-1.636,3.638-3.635,3.638h-37.912
					c-2,0-3.637-1.637-3.637-3.638v-37.908c0-2,1.637-3.638,3.637-3.638h37.912c1.999,0,3.635,1.638,3.635,3.638V215.296z"/>
				<text transform="matrix(1 0 0 1 233.4656 191.6003)" font-family="'IPAexGothic'" font-size="13.1832">D</text>
				<text transform="matrix(1 0 0 1 250.5989 210.8083)" font-family="'IPAexGothic'" font-size="13.1832">し</text>
			</g>
		</g>
		<g id="code-83">
			<g>
				<path fill="none" stroke="#000000" stroke-width="0.663" d="M215.511,220.388H177.6c-2.808,0-5.09-2.283-5.09-5.094v-37.908
					c0-2.81,2.282-5.093,5.09-5.093h37.912c2.807,0,5.09,2.283,5.09,5.093v37.908C220.601,218.105,218.318,220.388,215.511,220.388
					L215.511,220.388z"/>
				<path fill="none" stroke="#000000" stroke-width="0.663" d="M219.146,215.296c0,2.001-1.636,3.638-3.635,3.638H177.6
					c-2,0-3.637-1.637-3.637-3.638v-37.908c0-2,1.637-3.638,3.637-3.638h37.912c1.999,0,3.635,1.638,3.635,3.638L219.146,215.296
					L219.146,215.296z"/>
				<text transform="matrix(1 0 0 1 183.1643 191.6003)" font-family="'IPAexGothic'" font-size="13.1832">S</text>
				<text transform="matrix(1 0 0 1 200.2971 210.8083)" font-family="'IPAexGothic'" font-size="13.1832">と</text>
			</g>
		</g>
		<g id="code-65">
			<g>
				<path fill="none" stroke="#000000" stroke-width="0.663" d="M164.751,220.388h-37.912c-2.81,0-5.09-2.283-5.09-5.094v-37.908
					c0-2.81,2.28-5.093,5.09-5.093h37.912c2.806,0,5.089,2.283,5.089,5.093v37.908C169.84,218.105,167.557,220.388,164.751,220.388
					L164.751,220.388z"/>
				<path fill="none" stroke="#000000" stroke-width="0.663" d="M168.386,215.296c0,2.001-1.636,3.638-3.635,3.638h-37.912
					c-2,0-3.637-1.637-3.637-3.638v-37.908c0-2,1.637-3.638,3.637-3.638h37.912c1.999,0,3.635,1.638,3.635,3.638V215.296z"/>
				<text transform="matrix(1 0 0 1 132.4036 191.6003)" font-family="'IPAexGothic'" font-size="13.1832">A</text>
				<text transform="matrix(1 0 0 1 149.5369 210.8083)" font-family="'IPAexGothic'" font-size="13.1832">ち</text>
			</g>
		</g>
	</g>
	<g id="row2">
		<g id="code-219">
			<g>
				<path fill="none" stroke="#000000" stroke-width="0.663" d="M713.886,170.121h-37.911c-2.81,0-5.09-2.283-5.09-5.092v-37.91
					c0-2.808,2.28-5.092,5.09-5.092h37.911c2.808,0,5.09,2.284,5.09,5.092v37.91C718.976,167.837,716.693,170.121,713.886,170.121
					L713.886,170.121z"/>
				<path fill="none" stroke="#000000" stroke-width="0.663" d="M717.521,165.029c0,2.001-1.636,3.636-3.635,3.636h-37.911
					c-2,0-3.637-1.635-3.637-3.636v-37.91c0-2.001,1.637-3.636,3.637-3.636h37.911c1.999,0,3.635,1.635,3.635,3.636V165.029z"/>
				<text transform="matrix(1 0 0 1 680.5725 140.365)" font-family="'IPAexGothic'" font-size="13.1832">{</text>
				<text transform="matrix(1 0 0 1 696.9651 140.365)" font-family="'IPAexGothic'" font-size="13.1832">「</text>
				<text transform="matrix(1 0 0 1 704.4768 162.4753)" font-family="'IPAexGothic'" font-size="15.0811">゜</text>
				<text transform="matrix(1 0 0 1 681.1995 160.5408)" font-family="'IPAexGothic'" font-size="13.1832">[</text>
			</g>
		</g>
		<g id="code-192">
			<g>
				<path fill="none" stroke="#000000" stroke-width="0.663" d="M663.478,170.121h-37.911c-2.808,0-5.09-2.283-5.09-5.092v-37.91
					c0-2.808,2.282-5.092,5.09-5.092h37.911c2.808,0,5.09,2.284,5.09,5.092v37.91C668.567,167.837,666.283,170.121,663.478,170.121
					L663.478,170.121z"/>
				<path fill="none" stroke="#000000" stroke-width="0.663" d="M667.112,165.029c0,2.001-1.636,3.636-3.635,3.636h-37.911
					c-2.001,0-3.637-1.635-3.637-3.636v-37.91c0-2.001,1.636-3.636,3.637-3.636h37.911c1.999,0,3.635,1.635,3.635,3.636V165.029z"/>
				<text transform="matrix(1 0 0 1 631.1311 141.3328)" font-family="'IPAexGothic'" font-size="15.0811">`</text>
				<text transform="matrix(1 0 0 1 655.0354 162.4753)" font-family="'IPAexGothic'" font-size="15.0811">゛</text>
				<text transform="matrix(1 0 0 1 629.4612 160.5408)" font-family="'IPAexGothic'" font-size="13.1832">＠</text>
			</g>
		</g>
		<g id="code-80">
			<g>
				<path fill="none" stroke="#000000" stroke-width="0.663" d="M613.068,170.121h-37.911c-2.808,0-5.09-2.283-5.09-5.092v-37.91
					c0-2.808,2.282-5.092,5.09-5.092h37.911c2.808,0,5.09,2.284,5.09,5.092v37.91C618.156,167.837,615.875,170.121,613.068,170.121
					L613.068,170.121z"/>
				<path fill="none" stroke="#000000" stroke-width="0.663" d="M616.701,165.029c0,2.001-1.636,3.636-3.635,3.636h-37.911
					c-2,0-3.637-1.635-3.637-3.636v-37.91c0-2.001,1.636-3.636,3.637-3.636h37.911c1.999,0,3.635,1.635,3.635,3.636V165.029z"/>
				<text transform="matrix(1 0 0 1 580.7219 141.3328)" font-family="'IPAexGothic'" font-size="13.1832">P</text>
				<text transform="matrix(1 0 0 1 597.8557 160.5408)" font-family="'IPAexGothic'" font-size="13.1832">せ</text>
			</g>
		</g>
		<g id="code-79">
			<g>
				<path fill="none" stroke="#000000" stroke-width="0.663" d="M562.658,170.121h-37.911c-2.808,0-5.09-2.283-5.09-5.092v-37.91
					c0-2.808,2.282-5.092,5.09-5.092h37.911c2.81,0,5.092,2.284,5.092,5.092v37.91C567.75,167.837,565.468,170.121,562.658,170.121
					L562.658,170.121z"/>
				<path fill="none" stroke="#000000" stroke-width="0.663" d="M566.295,165.029c0,2.001-1.638,3.636-3.637,3.636h-37.911
					c-2,0-3.637-1.635-3.637-3.636v-37.91c0-2.001,1.636-3.636,3.637-3.636h37.911c1.999,0,3.637,1.635,3.637,3.636V165.029z"/>
				<text transform="matrix(1 0 0 1 530.3127 141.3328)" font-family="'IPAexGothic'" font-size="13.1832">O</text>
				<text transform="matrix(1 0 0 1 547.446 160.5408)" font-family="'IPAexGothic'" font-size="13.1832">ら</text>
			</g>
		</g>
		<g id="code-73">
			<g>
				<path fill="none" stroke="#000000" stroke-width="0.663" d="M511.605,170.121h-37.911c-2.808,0-5.09-2.283-5.09-5.092v-37.91
					c0-2.808,2.282-5.092,5.09-5.092h37.911c2.807,0,5.09,2.284,5.09,5.092v37.91C516.695,167.837,514.411,170.121,511.605,170.121
					L511.605,170.121z"/>
				<path fill="none" stroke="#000000" stroke-width="0.663" d="M515.24,165.029c0,2.001-1.636,3.636-3.635,3.636h-37.911
					c-2,0-3.637-1.635-3.637-3.636v-37.91c0-2.001,1.636-3.636,3.637-3.636h37.911c1.999,0,3.635,1.635,3.635,3.636V165.029z"/>
				<text transform="matrix(1 0 0 1 479.2581 141.3328)" font-family="'IPAexGothic'" font-size="13.1832">I</text>
				<text transform="matrix(1 0 0 1 496.3918 160.5408)" font-family="'IPAexGothic'" font-size="13.1832">に</text>
			</g>
		</g>
		<g id="code-85">
			<g>
				<path fill="none" stroke="#000000" stroke-width="0.663" d="M459.904,170.121h-37.912c-2.808,0-5.09-2.283-5.09-5.092v-37.91
					c0-2.808,2.282-5.092,5.09-5.092h37.912c2.809,0,5.09,2.284,5.09,5.092v37.91C464.992,167.837,462.711,170.121,459.904,170.121
					L459.904,170.121z"/>
				<path fill="none" stroke="#000000" stroke-width="0.663" d="M463.538,165.029c0,2.001-1.636,3.636-3.635,3.636h-37.912
					c-2,0-3.637-1.635-3.637-3.636v-37.91c0-2.001,1.637-3.636,3.637-3.636h37.912c1.999,0,3.635,1.635,3.635,3.636V165.029z"/>
				<text transform="matrix(1 0 0 1 427.5569 141.3328)" font-family="'IPAexGothic'" font-size="13.1832">U</text>
				<text transform="matrix(1 0 0 1 444.6907 160.5408)" font-family="'IPAexGothic'" font-size="13.1832">な</text>
			</g>
		</g>
		<g id="code-89">
			<g>
				<path fill="none" stroke="#000000" stroke-width="0.663" d="M408.85,170.121h-37.912c-2.808,0-5.09-2.283-5.09-5.092v-37.91
					c0-2.808,2.282-5.092,5.09-5.092h37.912c2.807,0,5.09,2.284,5.09,5.092v37.91C413.939,167.837,411.656,170.121,408.85,170.121
					L408.85,170.121z"/>
				<path fill="none" stroke="#000000" stroke-width="0.663" d="M412.485,165.029c0,2.001-1.636,3.636-3.635,3.636h-37.912
					c-2,0-3.637-1.635-3.637-3.636v-37.91c0-2.001,1.637-3.636,3.637-3.636h37.912c1.999,0,3.635,1.635,3.635,3.636V165.029z"/>
				<text transform="matrix(1 0 0 1 376.5022 141.3328)" font-family="'IPAexGothic'" font-size="13.1832">Y</text>
				<text transform="matrix(1 0 0 1 393.636 160.5408)" font-family="'IPAexGothic'" font-size="13.1832">ん</text>
			</g>
		</g>
		<g id="code-84">
			<g>
				<path fill="none" stroke="#000000" stroke-width="0.663" d="M357.795,170.121h-37.912c-2.81,0-5.09-2.283-5.09-5.092v-37.91
					c0-2.808,2.28-5.092,5.09-5.092h37.912c2.807,0,5.09,2.284,5.09,5.092v37.91C362.885,167.837,360.602,170.121,357.795,170.121
					L357.795,170.121z"/>
				<path fill="none" stroke="#000000" stroke-width="0.663" d="M361.43,165.029c0,2.001-1.636,3.636-3.635,3.636h-37.912
					c-2,0-3.639-1.635-3.639-3.636v-37.91c0-2.001,1.639-3.636,3.639-3.636h37.912c1.999,0,3.635,1.635,3.635,3.636V165.029z"/>
				<text transform="matrix(1 0 0 1 325.4475 141.3328)" font-family="'IPAexGothic'" font-size="13.1832">T</text>
				<text transform="matrix(1 0 0 1 342.5813 160.5408)" font-family="'IPAexGothic'" font-size="13.1832">か</text>
			</g>
		</g>
		<g id="code-82">
			<g>
				<path fill="none" stroke="#000000" stroke-width="0.663" d="M307.706,170.121h-37.91c-2.81,0-5.09-2.283-5.09-5.092v-37.91
					c0-2.808,2.28-5.092,5.09-5.092h37.91c2.809,0,5.092,2.284,5.092,5.092v37.91C312.797,167.837,310.514,170.121,307.706,170.121
					L307.706,170.121z"/>
				<path fill="none" stroke="#000000" stroke-width="0.663" d="M311.343,165.029c0,2.001-1.638,3.636-3.637,3.636h-37.91
					c-2,0-3.637-1.635-3.637-3.636v-37.91c0-2.001,1.637-3.636,3.637-3.636h37.91c1.999,0,3.637,1.635,3.637,3.636V165.029z"/>
				<text transform="matrix(1 0 0 1 275.3606 141.3328)" font-family="'IPAexGothic'" font-size="13.1832">R</text>
				<text transform="matrix(1 0 0 1 292.4934 160.5408)" font-family="'IPAexGothic'" font-size="13.1832">す</text>
			</g>
		</g>
		<g id="code-69">
			<g>
				<path fill="none" stroke="#000000" stroke-width="0.663" d="M257.299,170.121h-37.912c-2.808,0-5.09-2.283-5.09-5.092v-37.91
					c0-2.808,2.282-5.092,5.09-5.092h37.912c2.807,0,5.09,2.284,5.09,5.092v37.91C262.389,167.837,260.105,170.121,257.299,170.121
					L257.299,170.121z"/>
				<path fill="none" stroke="#000000" stroke-width="0.663" d="M260.934,165.029c0,2.001-1.636,3.636-3.635,3.636h-37.912
					c-2,0-3.637-1.635-3.637-3.636v-37.91c0-2.001,1.637-3.636,3.637-3.636h37.912c1.999,0,3.635,1.635,3.635,3.636V165.029z"/>
				<text transform="matrix(1 0 0 1 224.9514 141.3328)" font-family="'IPAexGothic'" font-size="13.1832">E</text>
				<text transform="matrix(1 0 0 1 242.0852 160.5408)" font-family="'IPAexGothic'" font-size="13.1832">い</text>
			</g>
		</g>
		<g id="code-87">
			<g>
				<path fill="none" stroke="#000000" stroke-width="0.663" d="M206.539,170.121h-37.912c-2.809,0-5.089-2.283-5.089-5.092v-37.91
					c0-2.808,2.28-5.092,5.089-5.092h37.912c2.807,0,5.09,2.284,5.09,5.092v37.91C211.628,167.837,209.345,170.121,206.539,170.121
					L206.539,170.121z"/>
				<path fill="none" stroke="#000000" stroke-width="0.663" d="M210.173,165.029c0,2.001-1.636,3.636-3.635,3.636h-37.912
					c-2,0-3.639-1.635-3.639-3.636v-37.91c0-2.001,1.639-3.636,3.639-3.636h37.912c1.999,0,3.635,1.635,3.635,3.636V165.029z"/>
				<text transform="matrix(1 0 0 1 174.1912 141.3328)" font-family="'IPAexGothic'" font-size="13.1832">W</text>
				<text transform="matrix(1 0 0 1 191.3245 160.5408)" font-family="'IPAexGothic'" font-size="13.1832">て</text>
			</g>
		</g>
		<g id="code-81">
			<g>
				<path fill="none" stroke="#000000" stroke-width="0.663" d="M155.778,170.121h-37.91c-2.81,0-5.092-2.283-5.092-5.092v-37.91
					c0-2.808,2.282-5.092,5.092-5.092h37.91c2.809,0,5.092,2.284,5.092,5.092v37.91
					C160.868,167.837,158.584,170.121,155.778,170.121L155.778,170.121z"/>
				<path fill="none" stroke="#000000" stroke-width="0.663" d="M159.413,165.029c0,2.001-1.638,3.636-3.637,3.636h-37.91
					c-2,0-3.639-1.635-3.639-3.636v-37.91c0-2.001,1.639-3.636,3.639-3.636h37.91c1.999,0,3.637,1.635,3.637,3.636V165.029z"/>
				<text transform="matrix(1 0 0 1 123.4309 141.3328)" font-family="'IPAexGothic'" font-size="13.1832">Q</text>
				<text transform="matrix(1 0 0 1 140.5637 160.5408)" font-family="'IPAexGothic'" font-size="13.1832">た</text>
			</g>
		</g>
	</g>
	<g id="row1">
		<g id="code-49">
			<g>
				<path fill="none" stroke="#000000" stroke-width="0.663" d="M119.56,120.033H81.648c-2.808,0-5.09-2.283-5.09-5.092v-37.91
					c0-2.808,2.282-5.091,5.09-5.091h37.912c2.809,0,5.09,2.283,5.09,5.091v37.91C124.65,117.75,122.367,120.033,119.56,120.033
					L119.56,120.033z"/>
				<path fill="none" stroke="#000000" stroke-width="0.663" d="M123.195,114.941c0,2.001-1.636,3.637-3.635,3.637H81.648
					c-2,0-3.637-1.636-3.637-3.637v-37.91c0-2,1.637-3.635,3.637-3.635h37.912c1.999,0,3.635,1.636,3.635,3.635V114.941z"/>
				<text transform="matrix(1 0 0 1 87.2122 91.2449)" font-family="'IPAexGothic'" font-size="13.1832">!</text>
				<text transform="matrix(1 0 0 1 84.5344 110.1306)" font-family="'IPAexGothic'" font-size="13.1832">1</text>
				<text transform="matrix(1 0 0 1 104.3459 110.4539)" font-family="'IPAexGothic'" font-size="13.1832">ぬ</text>
			</g>
		</g>
		<g id="code-50">
			<g>
				<path fill="none" stroke="#000000" stroke-width="0.663" d="M170.321,120.033h-37.91c-2.81,0-5.092-2.283-5.092-5.092v-37.91
					c0-2.808,2.282-5.091,5.092-5.091h37.91c2.809,0,5.092,2.283,5.092,5.091v37.91C175.411,117.75,173.127,120.033,170.321,120.033
					L170.321,120.033z"/>
				<path fill="none" stroke="#000000" stroke-width="0.663" d="M173.956,114.941c0,2.001-1.638,3.637-3.637,3.637h-37.91
					c-2,0-3.639-1.636-3.639-3.637v-37.91c0-2,1.639-3.635,3.639-3.635h37.91c1.999,0,3.637,1.636,3.637,3.635V114.941z"/>
				<text transform="matrix(1 0 0 1 137.9739 91.2449)" font-family="'IPAexGothic'" font-size="15.0811" letter-spacing="-5">”</text>
				<text transform="matrix(1 0 0 1 135.2957 110.1306)" font-family="'IPAexGothic'" font-size="13.1832">2</text>
				<text transform="matrix(1 0 0 1 155.1067 110.4539)" font-family="'IPAexGothic'" font-size="13.1832">ふ</text>
			</g>
		</g>
		<g id="code-51">
			<g>
				<path fill="none" stroke="#000000" stroke-width="0.663" d="M221.082,120.033H183.17c-2.809,0-5.089-2.283-5.089-5.092v-37.91
					c0-2.808,2.28-5.091,5.089-5.091h37.912c2.807,0,5.09,2.283,5.09,5.091v37.91C226.171,117.75,223.888,120.033,221.082,120.033
					L221.082,120.033z"/>
				<path fill="none" stroke="#000000" stroke-width="0.663" d="M224.716,114.941c0,2.001-1.636,3.637-3.635,3.637h-37.912
					c-2,0-3.637-1.636-3.637-3.637v-37.91c0-2,1.637-3.635,3.637-3.635h37.912c1.999,0,3.635,1.636,3.635,3.635V114.941z"/>
				<text transform="matrix(1 0 0 1 188.7336 91.2449)" font-family="'IPAexGothic'" font-size="13.1832">#</text>
				<text transform="matrix(1 0 0 1 186.0559 110.1306)" font-family="'IPAexGothic'" font-size="13.1832">3</text>
				<text transform="matrix(1 0 0 1 205.8669 110.4539)" font-family="'IPAexGothic'" font-size="13.1832">あ</text>
				<text transform="matrix(1 0 0 1 208.6106 87.3757)" font-family="'IPAexGothic'" font-size="13.1832">ぁ</text>
			</g>
		</g>
		<g id="code-52">
			<g>
				<path fill="none" stroke="#000000" stroke-width="0.663" d="M271.842,120.033H233.93c-2.808,0-5.09-2.283-5.09-5.092v-37.91
					c0-2.808,2.282-5.091,5.09-5.091h37.912c2.807,0,5.09,2.283,5.09,5.091v37.91C276.932,117.75,274.648,120.033,271.842,120.033
					L271.842,120.033z"/>
				<path fill="none" stroke="#000000" stroke-width="0.663" d="M275.477,114.941c0,2.001-1.636,3.637-3.635,3.637H233.93
					c-2,0-3.637-1.636-3.637-3.637v-37.91c0-2,1.637-3.635,3.637-3.635h37.912c1.999,0,3.635,1.636,3.635,3.635V114.941z"/>
				<text transform="matrix(1 0 0 1 239.4949 91.2449)" font-family="'IPAexGothic'" font-size="13.1832">$</text>
				<text transform="matrix(1 0 0 1 236.8167 110.1306)" font-family="'IPAexGothic'" font-size="13.1832">4</text>
				<text transform="matrix(1 0 0 1 256.6282 110.4539)" font-family="'IPAexGothic'" font-size="13.1832">う</text>
				<text transform="matrix(1 0 0 1 259.3713 87.3757)" font-family="'IPAexGothic'" font-size="13.1832">ぅ</text>
			</g>
		</g>
		<g id="code-53">
			<g>
				<path fill="none" stroke="#000000" stroke-width="0.663" d="M322.25,120.033h-37.912c-2.81,0-5.09-2.283-5.09-5.092v-37.91
					c0-2.808,2.28-5.091,5.09-5.091h37.912c2.807,0,5.09,2.283,5.09,5.091v37.91C327.34,117.75,325.057,120.033,322.25,120.033
					L322.25,120.033z"/>
				<path fill="none" stroke="#000000" stroke-width="0.663" d="M325.886,114.941c0,2.001-1.636,3.637-3.636,3.637h-37.911
					c-2,0-3.637-1.636-3.637-3.637v-37.91c0-2,1.637-3.635,3.637-3.635h37.911c1.998,0,3.636,1.636,3.636,3.635V114.941z"/>
				<text transform="matrix(1 0 0 1 287.968 91.2449)" font-family="'IPAexGothic'" font-size="13.1832">%</text>
				<text transform="matrix(1 0 0 1 287.2253 110.1306)" font-family="'IPAexGothic'" font-size="13.1832">5</text>
				<text transform="matrix(1 0 0 1 307.0369 110.4539)" font-family="'IPAexGothic'" font-size="13.1832">え</text>
				<text transform="matrix(1 0 0 1 311.0901 87.3757)" font-family="'IPAexGothic'" font-size="13.1832">ぇ</text>
			</g>
		</g>
		<g id="code-54">
			<g>
				<path fill="none" stroke="#000000" stroke-width="0.663" d="M373.305,120.033h-37.912c-2.808,0-5.09-2.283-5.09-5.092v-37.91
					c0-2.808,2.282-5.091,5.09-5.091h37.912c2.807,0,5.09,2.283,5.09,5.091v37.91C378.395,117.75,376.112,120.033,373.305,120.033
					L373.305,120.033z"/>
				<path fill="none" stroke="#000000" stroke-width="0.663" d="M376.94,114.941c0,2.001-1.636,3.637-3.635,3.637h-37.912
					c-2,0-3.637-1.636-3.637-3.637v-37.91c0-2,1.637-3.635,3.637-3.635h37.912c1.999,0,3.635,1.636,3.635,3.635V114.941z"/>
				<text transform="matrix(1 0 0 1 339.0227 91.2449)" font-family="'IPAexGothic'" font-size="13.1832">&amp;</text>
				<text transform="matrix(1 0 0 1 338.28 110.1306)" font-family="'IPAexGothic'" font-size="13.1832">6</text>
				<text transform="matrix(1 0 0 1 358.0916 110.4539)" font-family="'IPAexGothic'" font-size="13.1832">お</text>
				<text transform="matrix(1 0 0 1 359.9348 87.3757)" font-family="'IPAexGothic'" font-size="13.1832">ぉ</text>
			</g>
		</g>
		<g id="code-55">
			<g>
				<path fill="none" stroke="#000000" stroke-width="0.663" d="M424.36,120.033h-37.912c-2.808,0-5.09-2.283-5.09-5.092v-37.91
					c0-2.808,2.282-5.091,5.09-5.091h37.912c2.807,0,5.09,2.283,5.09,5.091v37.91C429.448,117.75,427.166,120.033,424.36,120.033
					L424.36,120.033z"/>
				<path fill="none" stroke="#000000" stroke-width="0.663" d="M427.993,114.941c0,2.001-1.636,3.637-3.635,3.637h-37.912
					c-2,0-3.637-1.636-3.637-3.637v-37.91c0-2,1.637-3.635,3.637-3.635h37.912c1.999,0,3.635,1.636,3.635,3.635V114.941z"/>
				<text transform="matrix(1 0 0 1 392.0129 91.2449)" font-family="'IPAexGothic'" font-size="15.0811" letter-spacing="-5">’</text>
				<text transform="matrix(1 0 0 1 389.3352 110.1306)" font-family="'IPAexGothic'" font-size="13.1832">7</text>
				<text transform="matrix(1 0 0 1 409.1458 110.4539)" font-family="'IPAexGothic'" font-size="13.1832">や</text>
				<text transform="matrix(1 0 0 1 412.6106 87.3757)" font-family="'IPAexGothic'" font-size="13.1832">ゃ</text>
			</g>
		</g>
		<g id="code-56">
			<g>
				<path fill="none" stroke="#000000" stroke-width="0.663" d="M475.413,120.033h-37.91c-2.81,0-5.092-2.283-5.092-5.092v-37.91
					c0-2.808,2.282-5.091,5.092-5.091h37.91c2.809,0,5.092,2.283,5.092,5.091v37.91C480.504,117.75,478.221,120.033,475.413,120.033
					L475.413,120.033z"/>
				<path fill="none" stroke="#000000" stroke-width="0.663" d="M479.05,114.941c0,2.001-1.638,3.637-3.637,3.637h-37.91
					c-2,0-3.639-1.636-3.639-3.637v-37.91c0-2,1.639-3.635,3.639-3.635h37.91c1.999,0,3.637,1.636,3.637,3.635V114.941z"/>
				<text transform="matrix(1 0 0 1 443.0676 89.3103)" font-family="'IPAexGothic'" font-size="13.1832">(</text>
				<text transform="matrix(1 0 0 1 440.3899 110.1306)" font-family="'IPAexGothic'" font-size="13.1832">8</text>
				<text transform="matrix(1 0 0 1 460.2004 110.4539)" font-family="'IPAexGothic'" font-size="13.1832">ゆ</text>
				<text transform="matrix(1 0 0 1 462.4133 87.3757)" font-family="'IPAexGothic'" font-size="13.1832">ゅ</text>
			</g>
		</g>
		<g id="code-57">
			<g>
				<path fill="none" stroke="#000000" stroke-width="0.663" d="M527.115,120.033h-37.911c-2.808,0-5.09-2.283-5.09-5.092v-37.91
					c0-2.808,2.282-5.091,5.09-5.091h37.911c2.809,0,5.089,2.283,5.089,5.091v37.91C532.203,117.75,529.923,120.033,527.115,120.033
					L527.115,120.033z"/>
				<path fill="none" stroke="#000000" stroke-width="0.663" d="M530.75,114.941c0,2.001-1.638,3.637-3.637,3.637h-37.911
					c-2,0-3.637-1.636-3.637-3.637v-37.91c0-2,1.636-3.635,3.637-3.635h37.911c1.999,0,3.637,1.636,3.637,3.635V114.941z"/>
				<text transform="matrix(1 0 0 1 494.7688 89.3103)" font-family="'IPAexGothic'" font-size="13.1832">)</text>
				<text transform="matrix(1 0 0 1 492.0911 110.1306)" font-family="'IPAexGothic'" font-size="13.1832">9</text>
				<text transform="matrix(1 0 0 1 511.9016 110.4539)" font-family="'IPAexGothic'" font-size="13.1832">よ</text>
				<text transform="matrix(1 0 0 1 514.1326 87.3757)" font-family="'IPAexGothic'" font-size="13.1832">ょ</text>
			</g>
		</g>
		<g id="code-48">
			<g>
				<path fill="none" stroke="#000000" stroke-width="0.663" d="M578.17,120.033h-37.911c-2.809,0-5.091-2.283-5.091-5.092v-37.91
					c0-2.808,2.282-5.091,5.091-5.091h37.911c2.807,0,5.09,2.283,5.09,5.091v37.91C583.26,117.75,580.978,120.033,578.17,120.033
					L578.17,120.033z"/>
				<path fill="none" stroke="#000000" stroke-width="0.663" d="M581.805,114.941c0,2.001-1.636,3.637-3.635,3.637h-37.911
					c-2,0-3.639-1.636-3.639-3.637v-37.91c0-2,1.638-3.635,3.639-3.635h37.911c1.999,0,3.635,1.636,3.635,3.635V114.941z"/>
				<text transform="matrix(1 0 0 1 563.9348 91.2449)" font-family="'IPAexGothic'" font-size="13.1832">を</text>
				<text transform="matrix(1 0 0 1 543.1458 110.1306)" font-family="'IPAexGothic'" font-size="13.1832">0</text>
				<text transform="matrix(1 0 0 1 562.9563 110.4539)" font-family="'IPAexGothic'" font-size="13.1832">わ</text>
			</g>
		</g>
		<g id="code-189">
			<g>
				<path fill="none" stroke="#000000" stroke-width="0.663" d="M628.577,120.033h-37.909c-2.81,0-5.092-2.283-5.092-5.092v-37.91
					c0-2.808,2.282-5.091,5.092-5.091h37.909c2.81,0,5.092,2.283,5.092,5.091v37.91C633.669,117.75,631.387,120.033,628.577,120.033
					L628.577,120.033z"/>
				<path fill="none" stroke="#000000" stroke-width="0.663" d="M632.214,114.941c0,2.001-1.638,3.637-3.637,3.637h-37.909
					c-2.002,0-3.639-1.636-3.639-3.637v-37.91c0-2,1.637-3.635,3.639-3.635h37.909c1.999,0,3.637,1.636,3.637,3.635V114.941z"/>
				<text transform="matrix(1 0 0 1 594.2971 90.2771)" font-family="'IPAexGothic'" font-size="13.1832">＝</text>
				<text transform="matrix(1 0 0 1 593.554 110.1306)" font-family="'IPAexGothic'" font-size="13.1832">ー</text>
				<text transform="matrix(1 0 0 1 613.3655 110.4539)" font-family="'IPAexGothic'" font-size="13.1832">ほ</text>
			</g>
		</g>
		<g id="code-222">
			<g>
				<path fill="none" stroke="#000000" stroke-width="0.663" d="M678.987,120.033h-37.911c-2.807,0-5.09-2.283-5.09-5.092v-37.91
					c0-2.808,2.283-5.091,5.09-5.091h37.911c2.81,0,5.09,2.283,5.09,5.091v37.91C684.075,117.75,681.795,120.033,678.987,120.033
					L678.987,120.033z"/>
				<path fill="none" stroke="#000000" stroke-width="0.663" d="M682.62,114.941c0,2.001-1.636,3.637-3.635,3.637h-37.911
					c-2,0-3.637-1.636-3.637-3.637v-37.91c0-2,1.637-3.635,3.637-3.635h37.911c1.999,0,3.635,1.636,3.635,3.635V114.941z"/>
				<text transform="matrix(1 0 0 1 643.7385 91.2449)" font-family="'IPAexGothic'" font-size="13.1832">～</text>
				<text transform="matrix(1 0 0 1 643.9631 110.1306)" font-family="'IPAexGothic'" font-size="13.1832">^</text>
				<text transform="matrix(1 0 0 1 663.7737 110.4539)" font-family="'IPAexGothic'" font-size="13.1832">へ</text>
			</g>
		</g>
		<g id="code-220">
			<g>
				<path fill="none" stroke="#000000" stroke-width="0.663" d="M729.396,120.033h-37.911c-2.808,0-5.09-2.283-5.09-5.092v-37.91
					c0-2.808,2.282-5.091,5.09-5.091h37.911c2.807,0,5.09,2.283,5.09,5.091v37.91C734.486,117.75,732.201,120.033,729.396,120.033
					L729.396,120.033z"/>
				<path fill="none" stroke="#000000" stroke-width="0.663" d="M733.031,114.941c0,2.001-1.637,3.637-3.635,3.637h-37.911
					c-2.001,0-3.637-1.636-3.637-3.637v-37.91c0-2,1.636-3.635,3.637-3.635h37.911c1.998,0,3.635,1.636,3.635,3.635V114.941z"/>
				<text transform="matrix(1 0 0 1 694.1467 91.2449)" font-family="'IPAexGothic'" font-size="13.1832">｜</text>
				<text transform="matrix(1 0 0 1 694.3713 110.1306)" font-family="'IPAexGothic'" font-size="13.1832">￥</text>
				<text transform="matrix(1 0 0 1 714.1819 110.4539)" font-family="'IPAexGothic'" font-size="13.1832">ー</text>
			</g>
		</g>
	</g>
</g>
<g id="special_x5F_keys">
	<g id="FunctionKeys">
		<g id="code-123">
			<g>
				<path fill="none" stroke="#000000" stroke-width="0.663" d="M781.653,58.75H743.74c-2.808,0-5.09-2.283-5.09-5.091V34.35
					c0-2.809,2.282-5.09,5.09-5.09h37.912c2.808,0,5.09,2.281,5.09,5.09v19.309C786.741,56.466,784.46,58.75,781.653,58.75
					L781.653,58.75z"/>
				<path fill="none" stroke="#000000" stroke-width="0.663" d="M785.287,53.659c0,2-1.636,3.636-3.636,3.636H743.74
					c-1.999,0-3.637-1.636-3.637-3.636V34.35c0-2,1.638-3.637,3.637-3.637h37.912c2,0,3.636,1.637,3.636,3.637V53.659
					L785.287,53.659z"/>
				<text transform="matrix(1 0 0 1 744.5159 45.4626)" font-family="'IPAexGothic'" font-size="13.1832">F12</text>
			</g>
		</g>
		<g id="code-122">
			<g>
				<path fill="none" stroke="#000000" stroke-width="0.663" d="M729.418,58.75h-37.912c-2.81,0-5.09-2.283-5.09-5.091V34.35
					c0-2.809,2.28-5.09,5.09-5.09h37.912c2.807,0,5.09,2.281,5.09,5.09v19.309C734.508,56.466,732.225,58.75,729.418,58.75
					L729.418,58.75z"/>
				<path fill="none" stroke="#000000" stroke-width="0.663" d="M733.054,53.659c0,2-1.636,3.636-3.636,3.636h-37.912
					c-1.999,0-3.639-1.636-3.639-3.636V34.35c0-2,1.64-3.637,3.639-3.637h37.912c2,0,3.636,1.637,3.636,3.637V53.659z"/>
				<text transform="matrix(1 0 0 1 692.2795 45.4626)" font-family="'IPAexGothic'" font-size="13.1832">F11</text>
			</g>
		</g>
		<g id="code-121">
			<g>
				<path fill="none" stroke="#000000" stroke-width="0.663" d="M678.149,58.75h-37.912c-2.807,0-5.089-2.283-5.089-5.091V34.35
					c0-2.809,2.282-5.09,5.089-5.09h37.912c2.807,0,5.09,2.281,5.09,5.09v19.309C683.239,56.466,680.954,58.75,678.149,58.75
					L678.149,58.75z"/>
				<path fill="none" stroke="#000000" stroke-width="0.663" d="M681.783,53.659c0,2-1.636,3.636-3.636,3.636h-37.912
					c-1.998,0-3.637-1.636-3.637-3.636V34.35c0-2,1.639-3.637,3.637-3.637h37.912c2,0,3.636,1.637,3.636,3.637V53.659z"/>
				<text transform="matrix(1 0 0 1 641.012 45.4626)" font-family="'IPAexGothic'" font-size="13.1832">F10</text>
			</g>
		</g>
		<g id="code-120">
			<g>
				<path fill="none" stroke="#000000" stroke-width="0.663" d="M625.912,58.75h-37.91c-2.809,0-5.091-2.283-5.091-5.091V34.35
					c0-2.809,2.282-5.09,5.091-5.09h37.91c2.809,0,5.092,2.281,5.092,5.09v19.309C631.004,56.466,628.721,58.75,625.912,58.75
					L625.912,58.75z"/>
				<path fill="none" stroke="#000000" stroke-width="0.663" d="M629.55,53.659c0,2-1.638,3.636-3.638,3.636h-37.91
					c-2,0-3.639-1.636-3.639-3.636V34.35c0-2,1.639-3.637,3.639-3.637h37.91c2,0,3.638,1.637,3.638,3.637V53.659z"/>
				<text transform="matrix(1 0 0 1 588.7751 45.4626)" font-family="'IPAexGothic'" font-size="13.1832">F9</text>
			</g>
		</g>
		<g id="code-119">
			<g>
				<path fill="none" stroke="#000000" stroke-width="0.663" d="M556.267,58.75h-37.912c-2.808,0-5.09-2.283-5.09-5.091V34.35
					c0-2.809,2.282-5.09,5.09-5.09h37.912c2.807,0,5.09,2.281,5.09,5.09v19.309C561.356,56.466,559.073,58.75,556.267,58.75
					L556.267,58.75z"/>
				<path fill="none" stroke="#000000" stroke-width="0.663" d="M559.902,53.659c0,2-1.636,3.636-3.636,3.636h-37.912
					c-1.999,0-3.637-1.636-3.637-3.636V34.35c0-2,1.638-3.637,3.637-3.637h37.912c2,0,3.636,1.637,3.636,3.637V53.659z"/>
				<text transform="matrix(1 0 0 1 519.1282 45.4626)" font-family="'IPAexGothic'" font-size="13.1832">F8</text>
			</g>
		</g>
		<g id="code-118">
			<g>
				<path fill="none" stroke="#000000" stroke-width="0.663" d="M504.997,58.75h-37.91c-2.809,0-5.092-2.283-5.092-5.091V34.35
					c0-2.809,2.283-5.09,5.092-5.09h37.91c2.808,0,5.092,2.281,5.092,5.09v19.309C510.088,56.466,507.805,58.75,504.997,58.75
					L504.997,58.75z"/>
				<path fill="none" stroke="#000000" stroke-width="0.663" d="M508.634,53.659c0,2-1.636,3.636-3.636,3.636h-37.912
					c-1.999,0-3.639-1.636-3.639-3.636V34.35c0-2,1.64-3.637,3.639-3.637h37.912c2,0,3.636,1.637,3.636,3.637V53.659z"/>
				<text transform="matrix(1 0 0 1 467.8596 45.4626)" font-family="'IPAexGothic'" font-size="13.1832">F7</text>
			</g>
		</g>
		<g id="code-117">
			<g>
				<path fill="none" stroke="#000000" stroke-width="0.663" d="M452.73,58.75h-37.912c-2.808,0-5.09-2.283-5.09-5.091V34.35
					c0-2.809,2.282-5.09,5.09-5.09h37.912c2.807,0,5.09,2.281,5.09,5.09v19.309C457.82,56.466,455.535,58.75,452.73,58.75
					L452.73,58.75z"/>
				<path fill="none" stroke="#000000" stroke-width="0.663" d="M456.365,53.659c0,2-1.636,3.636-3.636,3.636h-37.912
					c-1.999,0-3.637-1.636-3.637-3.636V34.35c0-2,1.638-3.637,3.637-3.637h37.912c2,0,3.636,1.637,3.636,3.637V53.659z"/>
				<text transform="matrix(1 0 0 1 415.592 45.4626)" font-family="'IPAexGothic'" font-size="13.1832">F6</text>
			</g>
		</g>
		<g id="code-116">
			<g>
				<path fill="none" stroke="#000000" stroke-width="0.663" d="M402.462,58.75H364.55c-2.81,0-5.09-2.283-5.09-5.091V34.35
					c0-2.809,2.28-5.09,5.09-5.09h37.912c2.807,0,5.09,2.281,5.09,5.09v19.309C407.552,56.466,405.269,58.75,402.462,58.75
					L402.462,58.75z"/>
				<path fill="none" stroke="#000000" stroke-width="0.663" d="M406.098,53.659c0,2-1.636,3.636-3.636,3.636H364.55
					c-1.999,0-3.639-1.636-3.639-3.636V34.35c0-2,1.64-3.637,3.639-3.637h37.912c2,0,3.636,1.637,3.636,3.637V53.659L406.098,53.659
					z"/>
				<text transform="matrix(1 0 0 1 365.3235 45.4626)" font-family="'IPAexGothic'" font-size="13.1832">F5</text>
			</g>
		</g>
		<g id="code-115">
			<g>
				<path fill="none" stroke="#000000" stroke-width="0.663" d="M328.945,58.75h-37.91c-2.809,0-5.091-2.283-5.091-5.091V34.35
					c0-2.809,2.282-5.09,5.091-5.09h37.91c2.809,0,5.09,2.281,5.09,5.09v19.309C334.033,56.466,331.752,58.75,328.945,58.75
					L328.945,58.75z"/>
				<path fill="none" stroke="#000000" stroke-width="0.663" d="M332.579,53.659c0,2-1.636,3.636-3.636,3.636h-37.91
					c-1.999,0-3.639-1.636-3.639-3.636V34.35c0-2,1.64-3.637,3.639-3.637h37.91c2,0,3.636,1.637,3.636,3.637V53.659z"/>
				<text transform="matrix(1 0 0 1 291.8069 45.4626)" font-family="'IPAexGothic'" font-size="13.1832">F4</text>
			</g>
		</g>
		<g id="code-114">
			<g>
				<path fill="none" stroke="#000000" stroke-width="0.663" d="M277.677,58.75h-37.912c-2.808,0-5.09-2.283-5.09-5.091V34.35
					c0-2.809,2.282-5.09,5.09-5.09h37.912c2.807,0,5.09,2.281,5.09,5.09v19.309C282.767,56.466,280.483,58.75,277.677,58.75
					L277.677,58.75z"/>
				<path fill="none" stroke="#000000" stroke-width="0.663" d="M281.313,53.659c0,2-1.636,3.636-3.636,3.636h-37.912
					c-1.999,0-3.637-1.636-3.637-3.636V34.35c0-2,1.638-3.637,3.637-3.637h37.912c2,0,3.636,1.637,3.636,3.637V53.659z"/>
				<text transform="matrix(1 0 0 1 240.5383 45.4626)" font-family="'IPAexGothic'" font-size="13.1832">F3</text>
			</g>
		</g>
		<g id="code-113">
			<g>
				<path fill="none" stroke="#000000" stroke-width="0.663" d="M226.409,58.75h-37.912c-2.81,0-5.092-2.283-5.092-5.091V34.35
					c0-2.809,2.282-5.09,5.092-5.09h37.912c2.807,0,5.09,2.281,5.09,5.09v19.309C231.499,56.466,229.215,58.75,226.409,58.75
					L226.409,58.75z"/>
				<path fill="none" stroke="#000000" stroke-width="0.663" d="M230.045,53.659c0,2-1.636,3.636-3.636,3.636h-37.912
					c-1.999,0-3.639-1.636-3.639-3.636V34.35c0-2,1.64-3.637,3.639-3.637h37.912c2,0,3.636,1.637,3.636,3.637V53.659z"/>
				<text transform="matrix(1 0 0 1 189.2703 45.4626)" font-family="'IPAexGothic'" font-size="13.1832">F2</text>
			</g>
		</g>
		<g id="code-112">
			<g>
				<path fill="none" stroke="#000000" stroke-width="0.663" d="M175.141,58.75h-37.912c-2.808,0-5.09-2.283-5.09-5.091V34.35
					c0-2.809,2.282-5.09,5.09-5.09h37.912c2.807,0,5.09,2.281,5.09,5.09v19.309C180.23,56.466,177.947,58.75,175.141,58.75
					L175.141,58.75z"/>
				<path fill="none" stroke="#000000" stroke-width="0.663" d="M178.776,53.659c0,2-1.636,3.636-3.636,3.636h-37.912
					c-1.999,0-3.637-1.636-3.637-3.636V34.35c0-2,1.638-3.637,3.637-3.637h37.912c2,0,3.636,1.637,3.636,3.637V53.659z"/>
				<text transform="matrix(1 0 0 1 138.0022 45.4626)" font-family="'IPAexGothic'" font-size="13.1832">F1</text>
			</g>
		</g>
	</g>
	<g id="arrow_x5F_keys">
		<g id="code-40">
			<g>
				<path fill="none" stroke="#000000" stroke-width="0.663" d="M888.145,321h-37.91c-2.808,0-5.091-2.284-5.091-5.091v-37.911
					c0-2.807,2.283-5.09,5.091-5.09h37.91c2.809,0,5.092,2.283,5.092,5.09v37.911C893.236,318.715,890.951,321,888.145,321
					L888.145,321z"/>
				<path fill="none" stroke="#000000" stroke-width="0.663" d="M891.781,315.909c0,1.999-1.636,3.636-3.637,3.636h-37.91
					c-2.001,0-3.637-1.637-3.637-3.636v-37.911c0-2,1.636-3.636,3.637-3.636h37.91c2.001,0,3.637,1.636,3.637,3.636V315.909z"/>
				<text transform="matrix(1 0 0 1 856.8694 306.1453)" font-family="'IPAexGothic'" font-size="23.3072">↓</text>
			</g>
		</g>
		<g id="code-39">
			<g>
				<path fill="none" stroke="#000000" stroke-width="0.663" d="M940.198,321h-37.91c-2.808,0-5.091-2.284-5.091-5.091v-37.911
					c0-2.807,2.283-5.09,5.091-5.09h37.91c2.811,0,5.092,2.283,5.092,5.09v37.911C945.289,318.715,943.007,321,940.198,321
					L940.198,321z"/>
				<path fill="none" stroke="#000000" stroke-width="0.663" d="M943.834,315.909c0,1.999-1.637,3.636-3.638,3.636h-37.91
					c-2.001,0-3.637-1.637-3.637-3.636v-37.911c0-2,1.636-3.636,3.637-3.636h37.91c2.001,0,3.638,1.636,3.638,3.636V315.909z"/>
				<text transform="matrix(1 0 0 1 909.4065 304.6951)" font-family="'IPAexGothic'" font-size="23.3072">→</text>
			</g>
		</g>
		<g id="code-38">
			<g>
				<path fill="none" stroke="#000000" stroke-width="0.663" d="M888.145,268.197h-37.91c-2.808,0-5.091-2.283-5.091-5.091v-37.91
					c0-2.807,2.283-5.09,5.091-5.09h37.91c2.809,0,5.092,2.283,5.092,5.09v37.91C893.236,265.914,890.951,268.197,888.145,268.197
					L888.145,268.197z"/>
				<path fill="none" stroke="#000000" stroke-width="0.663" d="M891.781,263.106c0,2-1.636,3.637-3.637,3.637h-37.91
					c-2.001,0-3.637-1.637-3.637-3.637v-37.91c0-2,1.636-3.637,3.637-3.637h37.91c2.001,0,3.637,1.637,3.637,3.637V263.106z"/>
				<text transform="matrix(1 0 0 1 856.8694 252.3767)" font-family="'IPAexGothic'" font-size="23.3072">↑</text>
			</g>
		</g>
		<g id="code-37">
			<g>
				<path fill="none" stroke="#000000" stroke-width="0.663" d="M836.694,321h-37.91c-2.808,0-5.091-2.284-5.091-5.091v-37.911
					c0-2.807,2.283-5.09,5.091-5.09h37.91c2.811,0,5.092,2.283,5.092,5.09v37.911C841.784,318.715,839.503,321,836.694,321
					L836.694,321z"/>
				<path fill="none" stroke="#000000" stroke-width="0.663" d="M840.329,315.909c0,1.999-1.636,3.636-3.637,3.636h-37.91
					c-2.001,0-3.637-1.637-3.637-3.636v-37.911c0-2,1.636-3.636,3.637-3.636h37.91c2.001,0,3.637,1.636,3.637,3.636V315.909z"/>
				<text transform="matrix(1 0 0 1 804.9358 304.6951)" font-family="'IPAexGothic'" font-size="23.3072">←</text>
			</g>
		</g>
	</g>
	<g id="six_x5F_keys">
		<g id="code-35">
			<g>
				<path fill="none" stroke="#000000" stroke-width="0.663" d="M890.638,170.811h-37.91c-2.807,0-5.09-2.283-5.09-5.09V127.81
					c0-2.81,2.283-5.091,5.09-5.091h37.91c2.809,0,5.092,2.281,5.092,5.091v37.911C895.729,168.528,893.446,170.811,890.638,170.811
					L890.638,170.811z"/>
				<path fill="none" stroke="#000000" stroke-width="0.663" d="M894.274,165.721c0,1.999-1.637,3.635-3.637,3.635h-37.91
					c-2,0-3.637-1.636-3.637-3.635V127.81c0-2.001,1.637-3.639,3.637-3.639h37.91c2,0,3.637,1.638,3.637,3.639V165.721z"/>
				<text transform="matrix(1 0 0 1 859.7795 151.1248)" font-family="'IPAexGothic'" font-size="13.1832">End</text>
			</g>
		</g>
		<g id="code-34">
			<g>
				<path fill="none" stroke="#000000" stroke-width="0.663" d="M943.584,170.811h-37.91c-2.81,0-5.092-2.283-5.092-5.09V127.81
					c0-2.81,2.282-5.091,5.092-5.091h37.91c2.809,0,5.092,2.281,5.092,5.091v37.911
					C948.676,168.528,946.393,170.811,943.584,170.811L943.584,170.811z"/>
				<path fill="none" stroke="#000000" stroke-width="0.663" d="M947.221,165.721c0,1.999-1.637,3.635-3.637,3.635h-37.91
					c-2.001,0-3.639-1.636-3.639-3.635V127.81c0-2.001,1.638-3.639,3.639-3.639h37.91c2,0,3.637,1.638,3.637,3.639V165.721z"/>
				<text transform="matrix(1 0 0 1 907.9221 151.1248)" font-family="'IPAexGothic'" font-size="13.1832">PgDn</text>
			</g>
		</g>
		<g id="code-33">
			<g>
				<path fill="none" stroke="#000000" stroke-width="0.663" d="M943.582,120.189h-37.908c-2.81,0-5.092-2.283-5.092-5.09V77.188
					c0-2.81,2.282-5.091,5.092-5.091h37.908c2.81,0,5.093,2.281,5.093,5.091v37.911
					C948.675,117.906,946.392,120.189,943.582,120.189L943.582,120.189z"/>
				<path fill="none" stroke="#000000" stroke-width="0.663" d="M947.22,115.099c0,2-1.636,3.636-3.638,3.636h-37.908
					c-2.001,0-3.64-1.636-3.64-3.636V77.188c0-2,1.639-3.636,3.64-3.636h37.908c2.002,0,3.638,1.635,3.638,3.636V115.099z"/>
				<text transform="matrix(1 0 0 1 907.7463 99.9998)" font-family="'IPAexGothic'" font-size="13.1832">PgUp</text>
			</g>
		</g>
		<g id="code-36">
			<g>
				<path fill="none" stroke="#000000" stroke-width="0.663" d="M890.638,120.189h-37.91c-2.807,0-5.09-2.283-5.09-5.09V77.188
					c0-2.81,2.283-5.091,5.09-5.091h37.91c2.809,0,5.092,2.281,5.092,5.091v37.911C895.729,117.906,893.446,120.189,890.638,120.189
					L890.638,120.189z"/>
				<path fill="none" stroke="#000000" stroke-width="0.663" d="M894.274,115.099c0,2-1.635,3.636-3.637,3.636h-37.91
					c-2,0-3.637-1.636-3.637-3.636V77.188c0-2,1.637-3.636,3.637-3.636h37.91c2.002,0,3.637,1.635,3.637,3.636V115.099z"/>
				<text transform="matrix(1 0 0 1 854.801 99.9998)" font-family="'IPAexGothic'" font-size="13.1832">Home</text>
			</g>
		</g>
		<g id="code-46">
			<g>
				<path fill="none" stroke="#000000" stroke-width="0.663" d="M838.473,170.811h-37.912c-2.807,0-5.09-2.283-5.09-5.091v-37.911
					c0-2.809,2.283-5.09,5.09-5.09h37.912c2.807,0,5.09,2.281,5.09,5.09v37.911C843.562,168.528,841.279,170.811,838.473,170.811
					L838.473,170.811z"/>
				<path fill="none" stroke="#000000" stroke-width="0.663" d="M842.107,165.72c0,2-1.637,3.637-3.635,3.637H800.56
					c-2,0-3.637-1.637-3.637-3.637v-37.911c0-1.999,1.637-3.637,3.637-3.637h37.912c1.998,0,3.635,1.638,3.635,3.637V165.72z"/>
				<text transform="matrix(1 0 0 1 800.6702 152.4128)" font-family="'IPAexGothic'" font-size="13.1832">Delete</text>
			</g>
		</g>
		<g id="code-45">
			<g>
				<path fill="none" stroke="#000000" stroke-width="0.663" d="M838.473,120.189h-37.912c-2.809,0-5.09-2.282-5.09-5.09V77.188
					c0-2.809,2.281-5.09,5.09-5.09h37.912c2.807,0,5.09,2.281,5.09,5.09V115.1C843.562,117.907,841.279,120.189,838.473,120.189
					L838.473,120.189z"/>
				<path fill="none" stroke="#000000" stroke-width="0.663" d="M842.107,115.099c0,2-1.637,3.636-3.635,3.636H800.56
					c-2,0-3.637-1.636-3.637-3.636V77.188c0-1.999,1.637-3.635,3.637-3.635h37.912c1.998,0,3.635,1.636,3.635,3.635V115.099z"/>
				<text transform="matrix(1 0 0 1 802.6624 101.7908)" font-family="'IPAexGothic'" font-size="13.1832">Insert</text>
			</g>
		</g>
	</g>
	<g id="ten_x5F_keys">
		<g id="code-107">
			<g>
				<path fill="none" stroke="#000000" stroke-width="0.663" d="M1158.128,219.069h-37.91c-2.81,0-5.091-2.283-5.091-5.09v-86.702
					c0-2.808,2.281-5.091,5.091-5.091h37.91c2.809,0,5.092,2.283,5.092,5.091v86.702
					C1163.22,216.786,1160.937,219.069,1158.128,219.069L1158.128,219.069z"/>
				<path fill="none" stroke="#000000" stroke-width="0.663" d="M1161.765,213.979c0,2-1.636,3.636-3.637,3.636h-37.91
					c-2,0-3.638-1.636-3.638-3.636v-86.702c0-2,1.638-3.637,3.638-3.637h37.91c2.001,0,3.637,1.637,3.637,3.637V213.979z"/>
				<text transform="matrix(1 0 0 1 1122.2913 143.3835)" font-family="'IPAexGothic'" font-size="19.1942">+</text>
			</g>
		</g>
		<g id="code-109">
			<g>
				<path fill="none" stroke="#000000" stroke-width="0.663" d="M1158.128,120.189h-37.91c-2.81,0-5.091-2.283-5.091-5.09V77.188
					c0-2.81,2.281-5.091,5.091-5.091h37.91c2.809,0,5.092,2.281,5.092,5.091v37.911
					C1163.22,117.906,1160.937,120.189,1158.128,120.189L1158.128,120.189z"/>
				<path fill="none" stroke="#000000" stroke-width="0.663" d="M1161.765,115.099c0,2-1.636,3.636-3.637,3.636h-37.91
					c-2,0-3.638-1.636-3.638-3.636V77.188c0-2,1.638-3.636,3.638-3.636h37.91c2.001,0,3.637,1.635,3.637,3.636V115.099z"/>
				<text transform="matrix(1 0 0 1 1122.2913 88.3914)" font-family="'IPAexGothic'" font-size="13.1832">ー</text>
			</g>
		</g>
		<g id="code-106">
			<g>
				<path fill="none" stroke="#000000" stroke-width="0.663" d="M1105.462,120.189h-37.909c-2.81,0-5.091-2.283-5.091-5.09V77.188
					c0-2.81,2.281-5.091,5.091-5.091h37.909c2.809,0,5.092,2.281,5.092,5.091v37.911
					C1110.554,117.906,1108.271,120.189,1105.462,120.189L1105.462,120.189z"/>
				<path fill="none" stroke="#000000" stroke-width="0.663" d="M1109.099,115.099c0,2-1.636,3.636-3.637,3.636h-37.909
					c-2.001,0-3.64-1.636-3.64-3.636V77.188c0-2,1.639-3.636,3.64-3.636h37.909c2.001,0,3.637,1.635,3.637,3.636V115.099z"/>
				<text transform="matrix(1 0 0 1 1068.6565 88.3914)" font-family="'IPAexGothic'" font-size="13.1832">＊</text>
			</g>
		</g>
		<g id="code-111">
			<g>
				<path fill="none" stroke="#000000" stroke-width="0.663" d="M1052.259,120.189h-37.91c-2.808,0-5.091-2.283-5.091-5.09V77.188
					c0-2.81,2.283-5.091,5.091-5.091h37.91c2.809,0,5.092,2.281,5.092,5.091v37.911
					C1057.351,117.906,1055.067,120.189,1052.259,120.189L1052.259,120.189z"/>
				<path fill="none" stroke="#000000" stroke-width="0.663" d="M1055.896,115.099c0,2-1.636,3.636-3.637,3.636h-37.91
					c-2,0-3.637-1.636-3.637-3.636V77.188c0-2,1.637-3.636,3.637-3.636h37.91c2.001,0,3.637,1.635,3.637,3.636V115.099z"/>
				<text transform="matrix(1 0 0 1 1016.4221 89.3591)" font-family="'IPAexGothic'" font-size="13.1832">／</text>
			</g>
		</g>
		<g id="code-144">
			<g>
				<path fill="none" stroke="#000000" stroke-width="0.663" d="M999.351,120.189h-37.912c-2.808,0-5.09-2.282-5.09-5.09V77.188
					c0-2.809,2.282-5.09,5.09-5.09h37.912c2.806,0,5.09,2.281,5.09,5.09V115.1C1004.44,117.907,1002.156,120.189,999.351,120.189
					L999.351,120.189z"/>
				<path fill="none" stroke="#000000" stroke-width="0.663" d="M1002.985,115.099c0,2-1.637,3.636-3.635,3.636h-37.912
					c-2,0-3.637-1.636-3.637-3.636V77.188c0-1.999,1.637-3.635,3.637-3.635h37.912c1.998,0,3.635,1.636,3.635,3.635V115.099z"/>
				<text transform="matrix(1 0 0 1 965.4768 93.0847)" font-family="'IPAexGothic'" font-size="13.1832">Num</text>
				<text transform="matrix(1 0 0 1 965.4768 106.7947)" font-family="'IPAexGothic'" font-size="13.1832">Lock</text>
			</g>
		</g>
		<g id="code-110">
			<g>
				<path fill="none" stroke="#000000" stroke-width="0.663" d="M1105.462,321.385h-37.91c-2.81,0-5.091-2.283-5.091-5.092v-37.911
					c0-2.808,2.281-5.091,5.091-5.091h37.91c2.809,0,5.092,2.283,5.092,5.091v37.911
					C1110.554,319.101,1108.271,321.385,1105.462,321.385L1105.462,321.385z"/>
				<path fill="none" stroke="#000000" stroke-width="0.663" d="M1109.099,316.294c0,1.999-1.636,3.637-3.637,3.637h-37.91
					c-2.001,0-3.638-1.638-3.638-3.637v-37.911c0-2,1.637-3.637,3.638-3.637h37.91c2.001,0,3.637,1.637,3.637,3.637V316.294z"/>
				<text transform="matrix(1 0 0 1 1082.4006 288.6472)" font-family="'IPAexGothic'" font-size="19.1942">.</text>
				<text transform="matrix(1 0 0 1 1070.26 310.3279)" font-family="'IPAexGothic'" font-size="13.1832">PgDn</text>
			</g>
		</g>
		<g id="code-105">
			<g>
				<path fill="none" stroke="#000000" stroke-width="0.663" d="M1105.462,170.278h-37.91c-2.81,0-5.091-2.283-5.091-5.09v-37.911
					c0-2.808,2.281-5.091,5.091-5.091h37.91c2.809,0,5.092,2.283,5.092,5.091v37.911
					C1110.554,167.995,1108.271,170.278,1105.462,170.278L1105.462,170.278z"/>
				<path fill="none" stroke="#000000" stroke-width="0.663" d="M1109.099,165.188c0,1.999-1.636,3.635-3.637,3.635h-37.91
					c-2.001,0-3.638-1.636-3.638-3.635v-37.911c0-2.001,1.637-3.637,3.638-3.637h37.91c2.001,0,3.637,1.636,3.637,3.637V165.188z"/>
				<text transform="matrix(1 0 0 1 1082.4006 142.3572)" font-family="'IPAexGothic'" font-size="15.0811">9</text>
				<text transform="matrix(1 0 0 1 1070.26 160.1687)" font-family="'IPAexGothic'" font-size="13.1832">PgUp</text>
			</g>
		</g>
		<g id="code-104">
			<g>
				<path fill="none" stroke="#000000" stroke-width="0.663" d="M1052.259,170.278h-37.91c-2.808,0-5.091-2.283-5.091-5.09v-37.911
					c0-2.808,2.283-5.091,5.091-5.091h37.91c2.809,0,5.092,2.283,5.092,5.091v37.911
					C1057.351,167.995,1055.067,170.278,1052.259,170.278L1052.259,170.278z"/>
				<path fill="none" stroke="#000000" stroke-width="0.663" d="M1055.896,165.188c0,1.999-1.637,3.635-3.637,3.635h-37.91
					c-2.001,0-3.637-1.636-3.637-3.635v-37.911c0-2.001,1.636-3.637,3.637-3.637h37.91c2,0,3.637,1.636,3.637,3.637V165.188z"/>
				<text transform="matrix(1 0 0 1 1027.1096 142.3572)" font-family="'IPAexGothic'" font-size="15.0811">8</text>
				<text transform="matrix(1 0 0 1 1024.6409 160.1687)" font-family="'IPAexGothic'" font-size="13.1832">↑</text>
			</g>
		</g>
		<g id="code-103">
			<g>
				<path fill="none" stroke="#000000" stroke-width="0.663" d="M999.351,170.278h-37.912c-2.807,0-5.09-2.283-5.09-5.091v-37.911
					c0-2.807,2.283-5.09,5.09-5.09h37.912c2.807,0,5.09,2.283,5.09,5.09v37.911C1004.44,167.995,1002.156,170.278,999.351,170.278
					L999.351,170.278z"/>
				<path fill="none" stroke="#000000" stroke-width="0.663" d="M1002.985,165.187c0,2-1.636,3.637-3.635,3.637h-37.912
					c-1.999,0-3.637-1.637-3.637-3.637v-37.911c0-1.999,1.638-3.635,3.637-3.635h37.912c1.999,0,3.635,1.636,3.635,3.635V165.187z"
					/>
				<text transform="matrix(1 0 0 1 976.0588 143.1736)" font-family="'IPAexGothic'" font-size="15.0811">7</text>
				<text transform="matrix(1 0 0 1 961.9827 160.9851)" font-family="'IPAexGothic'" font-size="13.1832">Home</text>
			</g>
		</g>
		<g id="code-102">
			<g>
				<path fill="none" stroke="#000000" stroke-width="0.663" d="M1105.462,220.785h-37.909c-2.81,0-5.091-2.283-5.091-5.09v-37.91
					c0-2.808,2.281-5.091,5.091-5.091h37.909c2.809,0,5.092,2.283,5.092,5.091v37.91
					C1110.554,218.501,1108.271,220.785,1105.462,220.785L1105.462,220.785z"/>
				<path fill="none" stroke="#000000" stroke-width="0.663" d="M1109.099,215.695c0,2-1.636,3.636-3.637,3.636h-37.909
					c-2.001,0-3.64-1.636-3.64-3.636v-37.91c0-2.001,1.639-3.637,3.64-3.637h37.909c2.001,0,3.637,1.636,3.637,3.637V215.695z"/>
				<text transform="matrix(1 0 0 1 1083.3694 193.5476)" font-family="'IPAexGothic'" font-size="15.0811">6</text>
				<text transform="matrix(1 0 0 1 1080.9006 211.3591)" font-family="'IPAexGothic'" font-size="13.1832">→</text>
			</g>
		</g>
		<g id="code-101">
			<g>
				<path fill="none" stroke="#000000" stroke-width="0.663" d="M1052.259,220.785h-37.91c-2.808,0-5.091-2.283-5.091-5.09v-37.91
					c0-2.808,2.283-5.091,5.091-5.091h37.91c2.809,0,5.092,2.283,5.092,5.091v37.91
					C1057.351,218.501,1055.067,220.785,1052.259,220.785L1052.259,220.785z"/>
				<path fill="none" stroke="#000000" stroke-width="0.663" d="M1055.896,215.695c0,2-1.636,3.636-3.637,3.636h-37.91
					c-2,0-3.637-1.636-3.637-3.636v-37.91c0-2.001,1.637-3.637,3.637-3.637h37.91c2.001,0,3.637,1.636,3.637,3.637V215.695z"/>
				<text transform="matrix(1 0 0 1 1027.8088 193.5476)" font-family="'IPAexGothic'" font-size="15.0811">5</text>
			</g>
		</g>
		<g id="code-100">
			<g>
				<path fill="none" stroke="#000000" stroke-width="0.663" d="M999.351,220.786h-37.912c-2.808,0-5.09-2.282-5.09-5.09v-37.911
					c0-2.808,2.282-5.091,5.09-5.091h37.912c2.806,0,5.09,2.283,5.09,5.091v37.911
					C1004.44,218.503,1002.156,220.786,999.351,220.786L999.351,220.786z"/>
				<path fill="none" stroke="#000000" stroke-width="0.663" d="M1002.985,215.696c0,2-1.637,3.636-3.635,3.636h-37.912
					c-2,0-3.637-1.636-3.637-3.636v-37.911c0-2,1.637-3.636,3.637-3.636h37.912c1.998,0,3.635,1.636,3.635,3.636V215.696z"/>
				<text transform="matrix(1 0 0 1 975.0901 193.7126)" font-family="'IPAexGothic'" font-size="15.0811">4</text>
				<text transform="matrix(1 0 0 1 972.6233 211.5242)" font-family="'IPAexGothic'" font-size="13.1832">←</text>
			</g>
		</g>
		<g id="code-99">
			<g>
				<path fill="none" stroke="#000000" stroke-width="0.663" d="M1105.462,270.973h-37.91c-2.81,0-5.091-2.283-5.091-5.092v-37.909
					c0-2.81,2.281-5.093,5.091-5.093h37.91c2.809,0,5.092,2.283,5.092,5.093v37.909
					C1110.554,268.69,1108.271,270.973,1105.462,270.973L1105.462,270.973z"/>
				<path fill="none" stroke="#000000" stroke-width="0.663" d="M1109.099,265.883c0,1.999-1.636,3.637-3.637,3.637h-37.91
					c-2.001,0-3.638-1.638-3.638-3.637v-37.909c0-2.001,1.637-3.639,3.638-3.639h37.91c2.001,0,3.637,1.638,3.637,3.639V265.883z"/>
				<text transform="matrix(1 0 0 1 1082.4006 244.0203)" font-family="'IPAexGothic'" font-size="15.0811">3</text>
				<text transform="matrix(1 0 0 1 1070.26 261.8318)" font-family="'IPAexGothic'" font-size="13.1832">PgDn</text>
			</g>
		</g>
		<g id="code-98">
			<g>
				<path fill="none" stroke="#000000" stroke-width="0.663" d="M1052.259,270.973h-37.91c-2.808,0-5.091-2.283-5.091-5.092v-37.909
					c0-2.81,2.283-5.093,5.091-5.093h37.91c2.809,0,5.092,2.283,5.092,5.093v37.909
					C1057.351,268.69,1055.067,270.973,1052.259,270.973L1052.259,270.973z"/>
				<path fill="none" stroke="#000000" stroke-width="0.663" d="M1055.896,265.883c0,1.999-1.637,3.637-3.637,3.637h-37.91
					c-2.001,0-3.637-1.638-3.637-3.637v-37.909c0-2.001,1.636-3.639,3.637-3.639h37.91c2,0,3.637,1.638,3.637,3.639V265.883z"/>
				<text transform="matrix(1 0 0 1 1027.1096 244.0203)" font-family="'IPAexGothic'" font-size="15.0811">2</text>
				<text transform="matrix(1 0 0 1 1024.6409 261.8318)" font-family="'IPAexGothic'" font-size="13.1832">↓</text>
			</g>
		</g>
		<g id="code-97">
			<g>
				<path fill="none" stroke="#000000" stroke-width="0.663" d="M999.351,270.973h-37.912c-2.807,0-5.09-2.283-5.09-5.093v-37.909
					c0-2.809,2.283-5.092,5.09-5.092h37.912c2.807,0,5.09,2.283,5.09,5.092v37.909C1004.44,268.69,1002.156,270.973,999.351,270.973
					L999.351,270.973z"/>
				<path fill="none" stroke="#000000" stroke-width="0.663" d="M1002.985,265.882c0,2-1.636,3.639-3.635,3.639h-37.912
					c-1.999,0-3.637-1.639-3.637-3.639v-37.909c0-1.999,1.638-3.637,3.637-3.637h37.912c1.999,0,3.635,1.638,3.635,3.637V265.882z"
					/>
				<text transform="matrix(1 0 0 1 976.0588 244.8367)" font-family="'IPAexGothic'" font-size="15.0811">1</text>
				<text transform="matrix(1 0 0 1 967.7874 262.6482)" font-family="'IPAexGothic'" font-size="13.1832">End</text>
			</g>
		</g>
		<g id="code-96">
			<g>
				<path fill="none" stroke="#000000" stroke-width="0.663" d="M1053.195,321.385h-91.757c-2.807,0-5.09-2.283-5.09-5.093v-37.911
					c0-2.808,2.283-5.091,5.09-5.091h91.757c2.806,0,5.089,2.283,5.089,5.091v37.911
					C1058.282,319.101,1056,321.385,1053.195,321.385L1053.195,321.385z"/>
				<path fill="none" stroke="#000000" stroke-width="0.663" d="M1056.828,316.293c0,1.999-1.636,3.639-3.635,3.639h-91.757
					c-1.999,0-3.637-1.64-3.637-3.639v-37.911c0-2,1.638-3.635,3.637-3.635h91.757c1.999,0,3.635,1.635,3.635,3.635V316.293z"/>
				<text transform="matrix(1 0 0 1 973.0413 312.5173)" font-family="'IPAexGothic'" font-size="13.1832">Ins</text>
				<text transform="matrix(1 0 0 1 976.8733 293.8074)" font-family="'IPAexGothic'" font-size="15.0811">0</text>
			</g>
		</g>
	</g>
	<g id="three_x5F_keys">
		<g id="code-44">
			<g>
				<path fill="none" stroke="#000000" stroke-width="0.663" d="M838.432,58.748H800.52c-2.808,0-5.09-2.283-5.09-5.09V34.35
					c0-2.81,2.282-5.09,5.09-5.09h37.912c2.807,0,5.09,2.28,5.09,5.09v19.308C843.521,56.464,841.238,58.748,838.432,58.748
					L838.432,58.748z"/>
				<path fill="none" stroke="#000000" stroke-width="0.663" d="M842.067,53.658c0,2-1.636,3.637-3.636,3.637H800.52
					c-1.999,0-3.637-1.637-3.637-3.637V34.35c0-2,1.638-3.638,3.637-3.638h37.912c2,0,3.636,1.638,3.636,3.638L842.067,53.658
					L842.067,53.658z"/>
				<text transform="matrix(1 0 0 1 798.635 44.1355)" font-family="'ArialMT'" font-size="12.3391">Print </text>
				<text transform="matrix(1 0 0 1 798.635 54.4929)" font-family="'ArialMT'" font-size="12.3391">Screen</text>
			</g>
		</g>
		<g id="code-145">
			<g>
				<path fill="none" stroke="#000000" stroke-width="0.663" d="M890.666,58.748h-37.911c-2.81,0-5.092-2.283-5.092-5.09V34.35
					c0-2.81,2.282-5.09,5.092-5.09h37.911c2.808,0,5.091,2.28,5.091,5.09v19.308C895.757,56.464,893.474,58.748,890.666,58.748
					L890.666,58.748z"/>
				<path fill="none" stroke="#000000" stroke-width="0.663" d="M894.303,53.658c0,2-1.638,3.637-3.638,3.637h-37.91
					c-1.999,0-3.639-1.637-3.639-3.637V34.35c0-2,1.64-3.638,3.639-3.638h37.91c2,0,3.638,1.638,3.638,3.638V53.658z"/>
				<text transform="matrix(1 0 0 1 850.8713 44.1355)" font-family="'ArialMT'" font-size="12.3391">Scroll </text>
				<text transform="matrix(1 0 0 1 850.8713 54.4929)" font-family="'ArialMT'" font-size="12.3391">Lock</text>
			</g>
		</g>
		<g id="code-19">
			<g>
				<path fill="none" stroke="#000000" stroke-width="0.663" d="M942.902,58.748H904.99c-2.807,0-5.089-2.283-5.089-5.09V34.35
					c0-2.81,2.282-5.09,5.089-5.09h37.912c2.808,0,5.09,2.28,5.09,5.09v19.308C947.99,56.464,945.709,58.748,942.902,58.748
					L942.902,58.748z"/>
				<path fill="none" stroke="#000000" stroke-width="0.663" d="M946.536,53.658c0,2-1.636,3.637-3.636,3.637H904.99
					c-1.998,0-3.637-1.637-3.637-3.637V34.35c0-2,1.639-3.638,3.637-3.638h37.912c2,0,3.636,1.638,3.636,3.638L946.536,53.658
					L946.536,53.658z"/>
				<text transform="matrix(1 0 0 1 903.1077 44.1355)" font-family="'ArialMT'" font-size="12.3391">Pause </text>
				<text transform="matrix(1 0 0 1 903.1077 54.4929)" font-family="'ArialMT'" font-size="12.3391">Break</text>
			</g>
		</g>
	</g>
	<g id="modifier_x5F_keys">
		<g id="code-8">
			<g>
				<path fill="none" stroke="#000000" stroke-width="0.663" d="M780.995,119.823h-37.911c-2.809,0-5.091-2.283-5.091-5.09V76.822
					c0-2.808,2.282-5.091,5.091-5.091h37.911c2.809,0,5.092,2.283,5.092,5.091v37.911
					C786.087,117.54,783.804,119.823,780.995,119.823L780.995,119.823z"/>
				<path fill="none" stroke="#000000" stroke-width="0.663" d="M784.632,114.733c0,1.999-1.638,3.636-3.637,3.636h-37.91
					c-2,0-3.639-1.637-3.639-3.636V76.822c0-2,1.639-3.636,3.639-3.636h37.91c1.999,0,3.637,1.636,3.637,3.636V114.733z"/>
				<text transform="matrix(1 0 0 1 745.1877 94.8816)" font-family="'IPAexGothic'" font-size="13.1832">Back</text>
				<text transform="matrix(1 0 0 1 745.1877 105.24)" font-family="'IPAexGothic'" font-size="13.1832">space</text>
			</g>
		</g>
		<g id="code-13">
			<g>
				<path fill="none" stroke="#000000" stroke-width="0.663" d="M1158.128,321.385h-37.91c-2.81,0-5.091-2.283-5.091-5.092v-89.7
					c0-2.81,2.281-5.093,5.091-5.093h37.91c2.809,0,5.092,2.283,5.092,5.093v89.7
					C1163.22,319.101,1160.937,321.385,1158.128,321.385L1158.128,321.385z"/>
				<path fill="none" stroke="#000000" stroke-width="0.663" d="M1161.765,316.294c0,2-1.636,3.638-3.637,3.638h-37.91
					c-2,0-3.638-1.638-3.638-3.638v-89.7c0-2,1.638-3.638,3.638-3.638h37.91c2.001,0,3.637,1.638,3.637,3.638V316.294z"/>
				<text transform="matrix(1 0 0 1 1122.2913 242.8259)" font-family="'IPAexGothic'" font-size="13.1832">Enter</text>
			</g>
			<g>
				<g>
					<g>
						<path fill="none" stroke="#000000" stroke-width="0.6868" d="M780.485,122.302h-53.37c-3.114,0-5.647,2.646-5.647,5.902v36.14
							c0,3.255,2.533,5.9,5.647,5.9h3.913v43.113c0,4.224,2.535,6.87,5.65,6.87h43.807c3.115,0,5.649-2.646,5.649-5.902v-86.122
							C786.135,124.95,783.601,122.302,780.485,122.302z"/>
					</g>
				</g>
				<g>
					<g>
						<path fill="none" stroke="#000000" stroke-width="0.6868" d="M780.485,124.27h-53.37c-2.069,0-3.767,1.77-3.767,3.937v36.14
							c0,2.165,1.695,3.936,3.767,3.936h5.797v45.08c0,3.132,1.694,4.902,3.769,4.902h43.807c2.072,0,3.769-1.771,3.769-3.937
							v-86.121C784.252,126.04,782.558,124.27,780.485,124.27z"/>
					</g>
				</g>
				<text transform="matrix(0.957 0 0 1 737.9651 144.783)" font-family="'IPAexGothic'" font-size="13.7755">Enter</text>
				<polygon fill="none" stroke="#000000" points="744.488,163.242 736.978,158.708 744.488,154.179 				"/>
				<polyline fill="none" stroke="#000000" stroke-width="1.3737" points="743.481,158.708 767.643,158.708 767.643,151.365 				"/>
			</g>
		</g>

		<g id="code-93">
			<g>
				<path fill="none" stroke="#000000" stroke-width="0.663" d="M712.843,320.963h-37.911c-2.807,0-5.09-2.281-5.09-5.092v-37.909
					c0-2.808,2.283-5.092,5.09-5.092h37.911c2.808,0,5.09,2.284,5.09,5.092v37.909C717.933,318.68,715.65,320.963,712.843,320.963
					L712.843,320.963z"/>
				<path fill="none" stroke="#000000" stroke-width="0.663" d="M716.478,315.872c0,2.001-1.636,3.639-3.635,3.639h-37.911
					c-2,0-3.637-1.638-3.637-3.639v-37.909c0-2.001,1.637-3.637,3.637-3.637h37.911c1.999,0,3.635,1.636,3.635,3.637V315.872z"/>
				<polygon fill="none" stroke="#000000" stroke-width="0.5669" points="699.133,307.29 686.23,307.29 686.23,292.015 
					686.23,288.004 699.133,288.004 				"/>
				<line fill="none" stroke="#000000" stroke-width="0.5669" x1="699.133" y1="292.825" x2="686.23" y2="292.825"/>
				<line fill="none" stroke="#000000" stroke-width="0.5669" x1="699.133" y1="297.648" x2="686.23" y2="297.648"/>
				<line fill="none" stroke="#000000" stroke-width="0.5669" x1="699.133" y1="302.469" x2="686.23" y2="302.469"/>
				<line fill="none" stroke="#000000" stroke-width="1.4173" x1="689.454" y1="290.416" x2="695.906" y2="290.416"/>
				<line fill="none" stroke="#000000" stroke-width="1.4173" x1="689.454" y1="304.879" x2="695.906" y2="304.879"/>
				<rect x="686.23" y="292.954" width="12.902" height="4.819"/>
				<line fill="none" stroke="#000000" stroke-width="1.4173" x1="689.454" y1="300.059" x2="695.906" y2="300.059"/>
				<!--<line fill="none" stroke="#aaaaaa" stroke-width="1.9842" x1="689.454" y1="295.235" x2="695.906" y2="295.235"/>-->
				<g>
					<g>
						<polygon fill="none" points="705.903,299.042 702.329,296.918 703.348,295.425 697.33,295.261 700.041,300.283
							701.059,298.789 704.632,300.913 						"/>
					</g>
					<g>
						<polygon fill="none" stroke="#000000" stroke-width="0.5669" points="705.903,299.042 702.329,296.918 703.348,295.425 
							697.33,295.261 700.041,300.283 701.059,298.789 704.632,300.913 						"/>
					</g>
				</g>
			</g>
		</g>
		<g id="code-242">
			<g>
				<path fill="none" stroke="#000000" stroke-width="0.6868" d="M602.311,320.844h-43.972c-2.909,0-5.274-2.367-5.274-5.273
					v-37.262c0-2.909,2.365-5.274,5.274-5.274h43.972c2.907,0,5.273,2.365,5.273,5.274v37.262
					C607.585,318.475,605.218,320.844,602.311,320.844L602.311,320.844z"/>
				<path fill="none" stroke="#000000" stroke-width="0.6868" d="M606.075,315.569c0,2.071-1.694,3.766-3.767,3.766h-43.972
					c-2.072,0-3.769-1.692-3.769-3.766v-37.263c0-2.072,1.695-3.769,3.769-3.769h43.972c2.07,0,3.767,1.694,3.767,3.769V315.569z"/>
				<text transform="matrix(1 0 0 1 560.1848 288.8679)" font-family="'IPAexGothic'" font-size="9.5971">カタカナ</text>
				<text transform="matrix(1 0 0 1 560.1848 299.8357)" font-family="'IPAexGothic'" font-size="9.5971">ひらがな</text>
				<text transform="matrix(1 0 0 1 560.1848 313.0007)" font-family="'IPAexGothic'" font-size="9.5971">ローマ字</text>
				<line fill="none" stroke="#000000" stroke-width="0.5" x1="559.875" y1="302.76" x2="600.916" y2="302.76"/>
			</g>
		</g>
		<g id="code-18">
			<g>
				<path fill="none" stroke="#000000" stroke-width="0.6868" d="M545.68,322.844h-36.234c-2.909,0-5.272-2.367-5.272-5.273v-37.262
					c0-2.909,2.363-5.274,5.272-5.274h36.234c2.908,0,5.272,2.365,5.272,5.274v37.262
					C550.952,320.475,548.587,322.844,545.68,322.844L545.68,322.844z"/>
				<path fill="none" stroke="#000000" stroke-width="0.6868" d="M549.446,317.569c0,2.071-1.695,3.766-3.768,3.766h-36.232
					c-2.073,0-3.767-1.692-3.767-3.766v-37.263c0-2.072,1.692-3.769,3.767-3.769h36.232c2.072,0,3.768,1.694,3.768,3.769V317.569z"
					/>
				<text transform="matrix(1 0 0 1 514.5813 303.4705)" font-family="'IPAexGothic'" font-size="12.3391">変換</text>
			</g>
		</g>
		<g id="code-32">
			<g id="space_x5F_bar">
				<path fill="none" stroke="#000000" stroke-width="0.6868" d="M496.856,321.844h-157.15c-2.906,0-5.271-2.367-5.271-5.273
					v-37.262c0-2.909,2.365-5.274,5.271-5.274h157.149c2.908,0,5.275,2.365,5.275,5.274v37.262
					C502.131,319.475,499.764,321.844,496.856,321.844L496.856,321.844z"/>
				<path fill="none" stroke="#000000" stroke-width="0.6868" d="M500.622,316.569c0,2.071-1.694,3.766-3.767,3.766H339.706
					c-2.069,0-3.766-1.692-3.766-3.766v-37.263c0-2.072,1.695-3.769,3.766-3.769h157.149c2.071,0,3.768,1.694,3.768,3.769
					L500.622,316.569L500.622,316.569z"/>
			</g>
		</g>
		<g id="code-19">
			<g>
				<path fill="none" stroke="#000000" stroke-width="0.6868" d="M326.95,320.844h-55.579c-2.908,0-5.273-2.367-5.273-5.273v-37.262
					c0-2.909,2.365-5.274,5.273-5.274h55.579c2.908,0,5.274,2.365,5.274,5.274v37.262
					C332.226,318.475,329.859,320.844,326.95,320.844L326.95,320.844z"/>
				<path fill="none" stroke="#000000" stroke-width="0.6868" d="M330.718,315.569c0,2.071-1.695,3.766-3.769,3.766h-55.577
					c-2.072,0-3.769-1.692-3.769-3.766v-37.263c0-2.072,1.695-3.769,3.769-3.769h55.577c2.072,0,3.769,1.694,3.769,3.769V315.569z"
					/>
				<text transform="matrix(1 0 0 1 273.2913 301.4705)" font-family="'IPAexGothic'" font-size="12.3391">無変換</text>
			</g>
		</g>
		<g id="code-18">
			<g>
				<path fill="none" stroke="#000000" stroke-width="0.6868" d="M662.655,320.844h-47.842c-2.908,0-5.273-2.367-5.273-5.273
					v-37.262c0-2.909,2.365-5.274,5.273-5.274h47.842c2.907,0,5.274,2.365,5.274,5.274v37.262
					C667.93,318.475,665.562,320.844,662.655,320.844L662.655,320.844z"/>
				<path fill="none" stroke="#000000" stroke-width="0.6868" d="M666.422,315.569c0,2.071-1.696,3.766-3.77,3.766h-47.841
					c-2.071,0-3.766-1.692-3.766-3.766v-37.263c0-2.072,1.692-3.769,3.766-3.769h47.841c2.071,0,3.77,1.694,3.77,3.769V315.569z"/>
				<text transform="matrix(1 0 0 1 628.0784 301.4705)" font-family="'IPAexGothic'" font-size="15.0811">Alt</text>
			</g>
			<g>
				<path fill="none" stroke="#000000" stroke-width="0.6868" d="M259.107,320.844h-47.842c-2.908,0-5.271-2.367-5.271-5.273
					v-37.262c0-2.909,2.363-5.274,5.271-5.274h47.842c2.908,0,5.274,2.365,5.274,5.274v37.262
					C264.381,318.475,262.015,320.844,259.107,320.844L259.107,320.844z"/>
				<path fill="none" stroke="#000000" stroke-width="0.6868" d="M262.874,315.569c0,2.071-1.696,3.766-3.77,3.766h-47.84
					c-2.072,0-3.767-1.692-3.767-3.766v-37.263c0-2.072,1.693-3.769,3.767-3.769h47.84c2.072,0,3.77,1.694,3.77,3.769V315.569z"/>
				<text transform="matrix(1 0 0 1 224.5305 301.4705)" font-family="'IPAexGothic'" font-size="15.0811">Alt</text>
			</g>
		</g>
		<g id="code-91">
			<path fill="none" stroke="#000000" stroke-width="0.6868" d="M198.925,320.844h-45.908c-2.908,0-5.271-2.367-5.271-5.273v-37.262
				c0-2.909,2.363-5.274,5.271-5.274h45.908c2.907,0,5.274,2.365,5.274,5.274v37.262
				C204.199,318.475,201.832,320.844,198.925,320.844L198.925,320.844z"/>
			<path fill="none" stroke="#000000" stroke-width="0.6868" d="M202.691,315.569c0,2.071-1.694,3.766-3.767,3.766h-45.906
				c-2.071,0-3.766-1.692-3.766-3.766v-37.263c0-2.072,1.693-3.769,3.766-3.769h45.906c2.071,0,3.767,1.694,3.767,3.769V315.569
				L202.691,315.569z"/>
			<g>
				<polygon points="163.439,288.107 172.092,286.934 172.092,295.254 163.439,295.254 				"/>
				<polygon points="163.336,296.016 172.092,296.016 172.092,304.777 163.239,303.465 				"/>
				<polygon points="172.855,286.831 184.922,285.196 184.922,295.254 172.855,295.254 				"/>
				<polygon points="172.855,296.016 184.922,296.016 184.922,306.678 172.855,304.777 				"/>
			</g>
		</g>
		<g id="code-fn">
			<g>
				<path fill="none" stroke="#000000" stroke-width="0.663" d="M140.725,320.963h-37.911c-2.807,0-5.09-2.281-5.09-5.092v-37.909
					c0-2.808,2.283-5.092,5.09-5.092h37.911c2.809,0,5.09,2.284,5.09,5.092v37.909C145.814,318.68,143.531,320.963,140.725,320.963
					L140.725,320.963z"/>
				<path fill="none" stroke="#000000" stroke-width="0.663" d="M144.359,315.872c0,2.001-1.636,3.639-3.635,3.639h-37.911
					c-2,0-3.637-1.638-3.637-3.639v-37.909c0-2.001,1.636-3.637,3.637-3.637h37.911c1.999,0,3.635,1.636,3.635,3.637V315.872z"/>
				<text transform="matrix(1 0 0 1 113.1169 301.4705)" font-family="'IPAexGothic'" font-size="15.0811">Fn</text>
			</g>
		</g>
		<g id="code-17">
            <g>
                <path fill="none" stroke="#000000" stroke-width="0.6868" d="M779.328,320.844h-53.646c-2.908,0-5.273-2.367-5.273-5.273
                    v-37.262c0-2.909,2.365-5.274,5.273-5.274h53.646c2.908,0,5.273,2.365,5.273,5.274v37.262
                    C784.604,318.475,782.238,320.844,779.328,320.844L779.328,320.844z"/>
                <path fill="none" stroke="#000000" stroke-width="0.6868" d="M783.096,315.569c0,2.071-1.694,3.766-3.77,3.766h-53.644
                    c-2.071,0-3.769-1.692-3.769-3.766v-37.263c0-2.072,1.695-3.769,3.769-3.769h53.644c2.073,0,3.77,1.694,3.77,3.769V315.569z"/>
                <text transform="matrix(1 0 0 1 727.6038 303.405)" font-family="'IPAexGothic'" font-size="15.0811">Ctrl</text>
            </g>
			<g>
				<path fill="none" stroke="#000000" stroke-width="0.6868" d="M90.529,320.844H30.112c-2.906,0-5.271-2.367-5.271-5.273v-37.262
					c0-2.909,2.365-5.274,5.271-5.274h60.417c2.908,0,5.274,2.365,5.274,5.274v37.262C95.803,318.475,93.437,320.844,90.529,320.844
					L90.529,320.844z"/>
				<path fill="none" stroke="#000000" stroke-width="0.6868" d="M94.295,315.569c0,2.071-1.696,3.766-3.77,3.766H30.112
					c-2.07,0-3.767-1.692-3.767-3.766v-37.263c0-2.072,1.695-3.769,3.767-3.769h60.416c2.072,0,3.77,1.694,3.77,3.769
					L94.295,315.569L94.295,315.569z"/>
				<text transform="matrix(1 0 0 1 32.032 301.4705)" font-family="'IPAexGothic'" font-size="15.0811">Ctrl</text>
			</g>
		</g>
		<g id="code-16">
			<g>
				<path fill="none" stroke="#000000" stroke-width="0.6868" d="M125.908,270.169H28.949c-2.908,0-5.273-2.364-5.273-5.272v-37.265
					c0-2.906,2.365-5.271,5.273-5.271h96.959c2.905,0,5.271,2.365,5.271,5.271v37.265
					C131.181,267.803,128.815,270.169,125.908,270.169L125.908,270.169z"/>
				<path fill="none" stroke="#000000" stroke-width="0.6868" d="M129.673,264.895c0,2.07-1.695,3.767-3.769,3.767H28.949
					c-2.071,0-3.767-1.692-3.767-3.767v-37.265c0-2.069,1.694-3.767,3.767-3.767h96.958c2.07,0,3.767,1.695,3.767,3.767
					L129.673,264.895L129.673,264.895z"/>
				<text transform="matrix(1 0 0 1 52.9714 252.3591)" font-family="'IPAexGothic'" font-size="13.7101">Shift</text>
				<g>
					<g>
						<polygon fill="none" stroke="#000000" stroke-width="0.6868" points="48.158,248.242 39.611,240.614 31.063,248.242 
							36.321,248.242 36.321,252.428 42.9,252.428 42.9,248.242 						"/>
					</g>
				</g>
			</g>
			<g>
				<path fill="none" stroke="#000000" stroke-width="0.6868" d="M780.785,270.169h-80.515c-2.907,0-5.273-2.364-5.273-5.272
					v-37.265c0-2.906,2.366-5.271,5.273-5.271h80.515c2.906,0,5.273,2.365,5.273,5.271v37.265
					C786.061,267.803,783.693,270.169,780.785,270.169L780.785,270.169z"/>
				<path fill="none" stroke="#000000" stroke-width="0.6868" d="M784.553,264.895c0,2.07-1.695,3.767-3.77,3.767h-80.513
					c-2.071,0-3.766-1.692-3.766-3.767v-37.265c0-2.069,1.692-3.767,3.766-3.767h80.513c2.072,0,3.77,1.695,3.77,3.767V264.895z"/>
				<text transform="matrix(1 0 0 1 732.9827 252.3591)" font-family="'IPAexGothic'" font-size="13.7101">Shift</text>
				<g>
					<g>
						<polygon fill="none" stroke="#000000" stroke-width="0.6868" points="728.168,248.242 719.619,240.614 711.073,248.242 
							716.329,248.242 716.329,252.428 722.908,252.428 722.908,248.242 						"/>
					</g>
				</g>
			</g>
		</g>
		<g id="code-capslock">
			<g>
				<path fill="none" stroke="#000000" stroke-width="0.6868" d="M114.368,219.969H30.112c-2.907,0-5.271-2.366-5.271-5.274v-37.262
					c0-2.908,2.365-5.274,5.271-5.274h84.258c2.905,0,5.272,2.366,5.272,5.274v37.262
					C119.642,217.602,117.274,219.969,114.368,219.969L114.368,219.969z"/>
				<path fill="none" stroke="#000000" stroke-width="0.6868" d="M118.134,214.694c0,2.071-1.695,3.767-3.766,3.767H30.113
					c-2.071,0-3.767-1.693-3.767-3.767v-37.263c0-2.071,1.694-3.769,3.767-3.769h84.257c2.069,0,3.766,1.695,3.766,3.769
					L118.134,214.694L118.134,214.694z"/>
				<text transform="matrix(1 0 0 1 33.8953 194.9011)" font-family="'IPAexGothic'" font-size="15.0811">Caps Lock</text>
				<text transform="matrix(1 0 0 1 36.3059 209.9705)" font-family="'IPAexGothic'" font-size="12.3391">英数</text>
			</g>
		</g>
		<g id="code-9">
			<g>
				<path fill="none" stroke="#000000" stroke-width="0.6868" d="M105.146,169.987H30.112c-2.907,0-5.271-2.365-5.271-5.273v-37.262
					c0-2.908,2.365-5.272,5.271-5.272h75.034c2.907,0,5.274,2.364,5.274,5.272v37.262
					C110.419,167.622,108.052,169.987,105.146,169.987L105.146,169.987z"/>
				<path fill="none" stroke="#000000" stroke-width="0.6868" d="M108.912,164.713c0,2.071-1.695,3.768-3.768,3.768H30.113
					c-2.071,0-3.767-1.694-3.767-3.768V127.45c0-2.072,1.694-3.767,3.767-3.767h75.033c2.071,0,3.768,1.692,3.768,3.767
					L108.912,164.713L108.912,164.713z"/>
				<text transform="matrix(1 0 0 1 33.8953 144.9207)" font-family="'IPAexGothic'" font-size="15.0811">T</text>
				<text transform="matrix(1 0 0 1 41.4216 144.9207)" font-family="'IPAexGothic'" font-size="15.0811">ab</text>
				<line fill="none" stroke="#000000" stroke-width="1.3737" x1="37.097" y1="146.165" x2="37.097" y2="156.736"/>
				<g>
					<g>
						<polygon fill="none" stroke="#000000" points="75.53,150.763 45.331,150.763 45.331,147.114 37.819,151.451 45.331,155.788 
							45.331,152.137 75.53,152.137 						"/>
					</g>
				</g>
				<line fill="none" stroke="#000000" stroke-width="1.3737" x1="74.202" y1="155.91" x2="74.202" y2="166.48"/>
				<g>
					<g>
						<polygon fill="none" stroke="#000000" points="73.478,161.194 65.967,156.858 65.967,160.505 35.768,160.505 35.768,161.88 
							65.967,161.88 65.967,165.532 						"/>
					</g>
				</g>
			</g>
		</g>
		<g id="code-244">
			<g>
				<path fill="none" stroke="#000000" stroke-width="0.663" d="M68.577,119.847H30.665c-2.809,0-5.089-2.282-5.089-5.092V76.846
					c0-2.81,2.28-5.093,5.089-5.093h37.912c2.808,0,5.091,2.283,5.091,5.093v37.91C73.668,117.565,71.385,119.847,68.577,119.847
					L68.577,119.847z"/>
				<path fill="none" stroke="#000000" stroke-width="0.663" d="M72.212,114.757c0,1.999-1.635,3.637-3.635,3.637H30.665
					c-1.999,0-3.637-1.638-3.637-3.637V76.847c0-2,1.638-3.638,3.637-3.638h37.912c2,0,3.635,1.638,3.635,3.638V114.757z"/>
				<text transform="matrix(1 0 0 1 32.7678 86.8953)" font-family="'IPAexGothic'" font-size="11.2999">半</text>
				<text transform="matrix(1 0 0 1 44.0686 86.8953)" font-family="'IPAexGothic'" font-size="11.2999">角</text>
				<text transform="matrix(1 0 0 1 58.1936 86.5505)" font-family="'IPAexGothic'" font-size="11.2999">/ </text>
				<text transform="matrix(1 0 0 1 32.7678 99.1375)" font-family="'IPAexGothic'" font-size="11.2999">全角</text>
				<line fill="none" stroke="#000000" stroke-width="0.6868" x1="30.754" y1="102.132" x2="63.471" y2="102.132"/>
				<text transform="matrix(1 0 0 1 32.7668 113.7087)" font-family="'IPAexGothic'" font-size="11.2999">漢字</text>
			</g>
		</g>
		<g id="code-27">
			<g>
				<path fill="none" stroke="#000000" stroke-width="0.663" d="M68.735,58.75H30.823c-2.808,0-5.09-2.283-5.09-5.091V34.35
					c0-2.809,2.282-5.09,5.09-5.09h37.912c2.809,0,5.092,2.281,5.092,5.09v19.309C73.825,56.466,71.542,58.75,68.735,58.75
					L68.735,58.75z"/>
				<path fill="none" stroke="#000000" stroke-width="0.663" d="M72.371,53.659c0,2-1.638,3.636-3.638,3.636H30.823
					c-1.997,0-3.637-1.636-3.637-3.636V34.35c0-2,1.64-3.637,3.637-3.637h37.912c2,0,3.638,1.637,3.638,3.637L72.371,53.659
					L72.371,53.659z"/>
				<text transform="matrix(1 0 0 1 31.5959 45.4626)" font-family="'IPAexGothic'" font-size="13.1832">ESC</text>
			</g>
		</g>
	</g>
</g>
</svg>
